<svg xmlns="http://www.w3.org/2000/svg" viewBox="0 0 299 299"><title>bbq-icon</title><rect width="299" height="299"/><path d="M105.63,79.69A1.64,1.64,0,0,1,107,82.63c-19.26,12.31-30.42,29.26-32.49,49.05h186.1c-2.2-34.73-30.89-56.07-70.74-64.3V50.11h4.31V34.17H104.81V50.11h4.31V67.38C69.28,75.61,40.58,97,38.38,131.68H55.84C58,107.86,75.58,89.42,105.63,79.69Zm83.28-.6c11.71,2.52,20.12,9.55,18.8,15.7s-11.88,9.1-23.59,6.57-20.13-9.54-18.8-15.7S177.21,76.57,188.91,79.09Zm-66.36-29h53.91v15a221,221,0,0,0-53.91,0Z" style="fill:#fff"/><path d="M120.68,215.64a1.77,1.77,0,0,0-.43-2.11c-25-19-41.84-45.27-45.39-70.6H260.4c-2.66,28.13-21.15,57.33-48.22,76.11l17.54,27.52c3.13,4.92,1.85,11.72-3.24,14.57-5.42,3-11.07,1.58-14.57-3.24l-18.07-28.37a105.09,105.09,0,0,1-88.67,0L87.1,257.89c-2.93,4.59-8.81,6.36-14.57,3.24-5.13-2.78-6.37-9.65-3.24-14.57L86.81,219c-27.06-18.78-45.56-48-48.21-76.1H56.12c3.7,29.62,29.2,59.59,62.51,73.41A1.45,1.45,0,0,0,120.68,215.64Z" style="fill:#fff"/><path d="M161.55,247.06l4.1,10.9a10.32,10.32,0,0,0,13.59,6.17,10.48,10.48,0,0,0,6.16-13.6l-2.86-7.63A117.13,117.13,0,0,1,161.55,247.06Z" style="fill:#fff"/></svg>