<svg xmlns="http://www.w3.org/2000/svg" viewBox="0 0 299 299"><title>fire-extinguisher_1</title><rect width="299" height="299"/><path d="M247,44.26c0-11.65-9.79-18.71-20.85-14.94C205.07,36.49,184,43.76,162.94,51L141.1,58.47c-1.71-9.93-7.45-15.32-15.9-15.08a14.16,14.16,0,0,0-12.35,7.48A23.71,23.71,0,1,0,71.78,69,52.82,52.82,0,0,0,50,111.38c0,9.87,0,19.74,0,29.61,0,5,3.13,8.48,7.6,8.46s7.52-3.44,7.53-8.51c0-9.79-.13-19.59,0-29.37.59-6.63,2.19-17.53,20.77-25.21a57.49,57.49,0,0,1,24.71-4.1c0,2.39,0,4.76.05,7.13a2.79,2.79,0,0,1-2,3.11,45.13,45.13,0,0,0-28.32,42.39v104.7c0,17.85,13.28,31.14,31.09,31.15q14.57,0,29.13,0a30.28,30.28,0,0,0,30.69-30.59q.09-53.18,0-106.36a42.4,42.4,0,0,0-3.86-17.66,45.3,45.3,0,0,0-24.56-23.75c-.74-.31-1.8-1.11-1.81-1.7-.14-5.58-.08-11.17-.08-16.93.82.23,1.43.37,2,.57Q183,88.07,223.12,101.8a31.36,31.36,0,0,0,8,2.07A14.9,14.9,0,0,0,247,88.79C247.08,74,247,59.1,247,44.26ZM89.39,64.82a11.45,11.45,0,1,1,11.44-11.44A11.44,11.44,0,0,1,89.39,64.82ZM149,124.33a9.43,9.43,0,0,1,9.43,9.42V240.38a9.43,9.43,0,0,1-18.85,0V133.75A9.42,9.42,0,0,1,149,124.33Z" style="fill:#fff"/></svg>