<svg xmlns="http://www.w3.org/2000/svg" viewBox="0 0 299 299"><title>flammable_1</title><rect width="299" height="299"/><path d="M247.06,119.08a16.14,16.14,0,0,1,0-3.18c1.71-6.65,3.59-13.26,5.18-19.93A51.32,51.32,0,0,0,254,85.15c.07-3.33-.85-6.67-1.32-10h-.89C247.2,80.9,242.12,86,235,89.92c3.49-8.26,3.07-16.13,1.41-24-1.19-5.63-2.81-11.16-4.16-16.76-2-8.35-4.36-16.7-.93-25.45-8.11,5-16.12,10-23.79,15.52-12,8.58-21.12,19.34-24.51,34.13-.76,3.35-1.19,6.78-1.9,10.9-.51-1.44-.73-2.23-1.07-3-1.64-3.6-3-7.36-5-10.73-3.2-5.33-7-10.3-7.24-17.65-6.87,10.37-12.73,20.31-13.63,32.11-.47,6.23.42,12.56.7,18.84,0,.49.05,1,.07,1.47,7,4,14.16,8,21.29,12.1a12.16,12.16,0,0,1,5.36,6.82c.7,2.4,1.39,4.82,2.08,7.23l.4.77c2.46-15.71,14.19-21.89,25.68-28.51-2,5.7.1,10.88,1.44,16.12s2.58,10.37,1.79,16.1l7.06-6.58c3.48,7.28-1.37,13.65-2.4,20.84,4.11-3.8,8.7-4.26,12.66-5-.8,4.47-1.72,8.64-2.26,12.86-.44,3.44-.06,7-.7,10.39-1.06,5.67-4.79,9.43-9.2,12.51l3,10.67c7.69-4.13,15.43-8.18,22.91-12.66a55.33,55.33,0,0,0,18.56-17.55c4.21-6.59,4.36-14,4.6-21.52.37-11.4-.2-23.05,6.48-33.79C263.93,109,253.15,108.28,247.06,119.08Z" style="fill:#fff;fill-rule:evenodd"/><path d="M191.52,152.48c.11,1.84.81,4.72.2,5-2.44,1.26-5.3,1.71-8.25,2.53-.34-1-.68-1.83-.92-2.71-2.87-10.28-5.68-20.57-8.66-30.82a6.14,6.14,0,0,0-2.59-3.31q-30.78-17.55-61.66-34.9c-10.21-5.75-19.8-3.13-25.53,7Q55.36,146.1,26.65,196.92c-4.9,8.68-4.32,16.53,1.79,22.57A26.34,26.34,0,0,0,34,223.41q42.9,24.3,85.85,48.52c11.31,6.38,20.55,3.67,27-7.82q19.45-34.58,39-69.07a6.86,6.86,0,0,1,3.52-2.75c3.74-1.27,7.6-2.19,11.73-3.34.61,1.76,1.09,3.17,1.66,4.81l9.84-2.74-11.45-41.21ZM149.34,188.9c-3.53,1.06-7.13,1.87-10.62,3a6.1,6.1,0,0,0-3.13,2.42c-4,6.76-7.48,13.81-11.73,20.38-3.19,4.9-4.24,9.56-1.75,14.95a28.42,28.42,0,0,1,1.39,4.9c.91,3.55-.64,6.6-3.77,7.43s-5.78-.92-6.8-4.37c-1.08-3.62-1.94-7.31-3.13-10.9a5.62,5.62,0,0,0-2.27-2.91q-12.89-7.44-25.92-14.61a5.6,5.6,0,0,0-3.68-.4c-3.87.88-7.65,2.11-11.51,3a5.43,5.43,0,0,1-6.68-3.75,5.57,5.57,0,0,1,3.7-6.76c2-.67,4-1.13,6-1.69v0a31.06,31.06,0,0,1,4.1-1.11c2.59-.36,4-1.8,5.23-4.08,2.8-5.35,5.9-10.55,8.86-15.82,1.94-3.46,5-6.79,5.43-10.44s-1.66-7.62-2.65-11.45c-.12-.46-.26-.91-.37-1.37-.86-3.7.6-6.5,3.83-7.32s5.77.89,6.79,4.38,1.87,7.14,3,10.62a6.17,6.17,0,0,0,2.43,3.11c5.51,3.29,11.14,6.4,16.74,9.54,3.62,2,7.13,5.16,11,5.65s7.8-1.8,11.72-2.87c.27-.07.54-.16.82-.22,3.54-.88,6.32.48,7.25,3.55S153,187.8,149.34,188.9ZM91,116.84c1.91-3.18,4-6.54,6-10,2.16-3.7,3.62-4.17,7.3-2.1q26.4,14.91,52.75,29.89a5.84,5.84,0,0,1,2.43,3.11c1.91,6.32,3.61,12.71,5.37,19.09a15.59,15.59,0,0,1,.28,1.88Z" style="fill:#fff;fill-rule:evenodd"/></svg>