<svg xmlns="http://www.w3.org/2000/svg" viewBox="0 0 299 299"><title>goggles_1</title><rect width="299" height="299"/><path d="M261.81,111.41c-11.48-10.76-39.95-26.65-108-26-2.26,0-8.35,0-10.61,0-68-.68-96.52,15.19-108,26L37,130.72c.38,4.08,3.56,10.18,9.06,14.8C56.3,111.5,144.23,112,144.23,112h8.54s87.92-.54,98.2,33.48c5.51-4.62,8.69-10.72,9.06-14.8Z" style="fill:#fff"/><path d="M23.84,131.93c-3.2,2.53,2.09,14.46,2.09,36.13A43.3,43.3,0,0,0,43.8,187.34V159.91C32.18,153.31,24.73,141.64,23.84,131.93Z" style="fill:#fff"/><path d="M273.17,131.93c-.9,9.71-8.35,21.38-20,28v27.43a43.3,43.3,0,0,0,17.87-19.29C271.07,146.39,276.35,134.46,273.17,131.93Z" style="fill:#fff"/><path d="M235.27,154.12h-5.79a38.48,38.48,0,0,0-32.32-17.56H99.84a38.48,38.48,0,0,0-32.32,17.56H61.73a5.13,5.13,0,0,0-5.13,5.12v31.7a5.13,5.13,0,0,0,5.13,5.12h5.79a38.54,38.54,0,0,0,69.62-30.66l5.71-5.22h11.3l5.71,5.22a38.53,38.53,0,0,0,69.62,30.66h5.79a5.12,5.12,0,0,0,5.12-5.12v-31.7A5.12,5.12,0,0,0,235.27,154.12ZM99.84,200.82a25.73,25.73,0,1,1,25.72-25.73A25.76,25.76,0,0,1,99.84,200.82Zm97.32,0a25.73,25.73,0,1,1,25.73-25.73A25.76,25.76,0,0,1,197.16,200.82Z" style="fill:#fff"/></svg>