<svg xmlns="http://www.w3.org/2000/svg" viewBox="0 0 299 299"><title>housefire_1</title><rect width="299" height="299"/><polygon points="230.9 218.2 231.02 177.18 219.41 183.93 219.33 211.51 140.39 257.39 124.75 248.36 124.84 215.44 102.92 202.8 102.82 235.7 59.57 210.74 59.69 161.44 48.09 164.22 47.96 217.42 140.41 270.79 230.9 218.2" style="fill:#fff"/><polygon points="92.84 196.61 92.9 174.18 73.39 162.92 73.33 185.35 92.84 196.61" style="fill:#fff"/><path d="M126.28,81.44l-91.37,53.1,7.17,19.23,51.84-12.39,51.61,72.12L220.32,170a76.08,76.08,0,0,1-18.08.58c-25.81-2.49-48.39-20.58-56.17-45.17-5.18-16.39-3.24-33.57,5.12-50Z" style="fill:#fff"/><path d="M262.42,114c2.61-28.28-22.9-46.59-22.9-46.59,5.34,18.63-8.34,34.24-8.34,34.24s-18.3-25.77-2.12-72.85c0,0-27.8,13.7-41.45,54.23,0,0-8.57-15.75-3.15-31.95-58.32,49.78-23.17,105.55,18.77,109.1C244,163.6,260.52,134.48,262.42,114Zm-46.84,35.33a40.45,40.45,0,0,1-8.37.87c-14.06,0-28.56-7.1-36.51-20.32-6.62-11-7.63-23.91-2.61-36.46a.87.87,0,0,1,.79-.52H169a.83.83,0,0,1,.66.83c-.42,26.18,19.3,49.39,45.88,54a.83.83,0,0,1,.68.81A.83.83,0,0,1,215.58,149.29Z" style="fill:#fff"/></svg>