<svg xmlns="http://www.w3.org/2000/svg" xmlns:xlink="http://www.w3.org/1999/xlink" viewBox="0 0 1197.38 664.98"><defs><pattern id="a" width="11.65" height="9.37" patternTransform="translate(-1.73 -5.84) scale(1.13)" patternUnits="userSpaceOnUse" viewBox="0 0 11.64 9.37"><rect width="11.65" height="9.37" style="fill:none"/><rect width="11.65" height="9.37"/><circle cx="0.86" cy="1.08" r="0.37" style="fill:#fff"/><circle cx="3.24" cy="1.91" r="0.37" style="fill:#fff"/><circle cx="5.83" cy="1.2" r="0.37" style="fill:#fff"/><circle cx="9.24" cy="1.04" r="0.37" style="fill:#fff"/><circle cx="10.49" cy="5.16" r="0.37" style="fill:#fff"/><circle cx="7.03" cy="3.16" r="0.37" style="fill:#fff"/><circle cx="0.99" cy="3.33" r="0.37" style="fill:#fff"/><circle cx="3.7" cy="4.16" r="0.37" style="fill:#fff"/><circle cx="4.28" cy="7.12" r="0.37" style="fill:#fff"/><circle cx="7.07" cy="5.66" r="0.37" style="fill:#fff"/><circle cx="10.16" cy="7.95" r="0.37" style="fill:#fff"/><circle cx="6.49" cy="8.41" r="0.37" style="fill:#fff"/><circle cx="1.45" cy="8.33" r="0.37" style="fill:#fff"/><circle cx="1.66" cy="5.75" r="0.37" style="fill:#fff"/></pattern><pattern id="c" width="11.65" height="9.37" patternTransform="translate(-26.45 -18.23) scale(1.42)" patternUnits="userSpaceOnUse" viewBox="0 0 11.64 9.37"><rect width="11.65" height="9.37" style="fill:none"/><rect width="11.65" height="9.37"/><circle cx="0.86" cy="1.08" r="0.37" style="fill:#fff"/><circle cx="3.24" cy="1.91" r="0.37" style="fill:#fff"/><circle cx="5.83" cy="1.2" r="0.37" style="fill:#fff"/><circle cx="9.24" cy="1.04" r="0.37" style="fill:#fff"/><circle cx="10.49" cy="5.16" r="0.37" style="fill:#fff"/><circle cx="7.03" cy="3.16" r="0.37" style="fill:#fff"/><circle cx="0.99" cy="3.33" r="0.37" style="fill:#fff"/><circle cx="3.7" cy="4.16" r="0.37" style="fill:#fff"/><circle cx="4.28" cy="7.12" r="0.37" style="fill:#fff"/><circle cx="7.07" cy="5.66" r="0.37" style="fill:#fff"/><circle cx="10.16" cy="7.95" r="0.37" style="fill:#fff"/><circle cx="6.49" cy="8.41" r="0.37" style="fill:#fff"/><circle cx="1.45" cy="8.33" r="0.37" style="fill:#fff"/><circle cx="1.66" cy="5.75" r="0.37" style="fill:#fff"/></pattern></defs><title>info</title><text transform="translate(813.59 79.99)" style="font-size:38px;fill:#fff;font-family:HelveticaNeue-LightItalic, Helvetica Neue;font-style:italic">Mortar</text><line x1="816" y1="100.39" x2="725" y2="145.39" style="fill:none;stroke:#fff;stroke-miterlimit:10;stroke-width:3px"/><ellipse cx="540.67" cy="559.29" rx="185.06" ry="59.49" style="fill:none;stroke:#fff;stroke-miterlimit:10;stroke-width:3px"/><path d="M725.18,59.35h0c0,32.76-83.75,63.38-185.06,63.38S356.7,96.18,356.7,63.42a18.13,18.13,0,0,0-.55-4.07h0l1.09,501.23c0,32.76,82.13,59.31,183.43,59.31S724.1,593.34,724.1,560.58l1.08-501.23Z" style="fill:none;stroke:#fff;stroke-miterlimit:10;stroke-width:3px"/><ellipse cx="540.67" cy="60.99" rx="185.06" ry="59.49" style="fill:none;stroke:#fff;stroke-miterlimit:10;stroke-width:3px"/><path d="M663.23,318.08A121.59,121.59,0,1,0,501.5,432.86V559.55c0,5.62,17.72,10.18,39.58,10.18s39.59-4.56,39.59-10.18V433.26A121.61,121.61,0,0,0,663.23,318.08Z" style="fill:none;stroke:#fff;stroke-miterlimit:10;stroke-width:3px"/><path d="M580.68,517.16c0,2.87-18.39,7.47-40,7.47s-39.07-4-39.07-6.84c0-.12.7,43.34.7,43.34,0,2.87,17,8.41,38.6,8.41s39.73-5.54,39.73-8.41Z" style="stroke:#fff;stroke-miterlimit:10;stroke-width:3px;fill:url(#a)"/><ellipse cx="541.45" cy="516.03" rx="39.6" ry="9.29" style="stroke:#fff;stroke-miterlimit:10;stroke-width:3px;fill:url(#a)"/><circle cx="541.65" cy="316.46" r="77.56" style="stroke:#fff;stroke-miterlimit:10;stroke-width:3px;fill:url(#c)"/><path d="M543.37,512.06V361.64s0-.57,0-.9c0-1-1.16-1.87-2.6-1.87s-2.59.84-2.59,1.87c0,.33,0,.9,0,.9V512.06s0,.51,0,.8c0,1,1.16,1.86,2.6,1.86s2.59-.83,2.59-1.86C543.38,512.57,543.37,512.06,543.37,512.06Z" style="fill:#fff;stroke:#fff;stroke-linecap:round;stroke-miterlimit:10"/><circle cx="612" cy="248.39" r="10" style="fill:#e30032"/><circle cx="579" cy="226.39" r="10" style="fill:#e30032"/><circle cx="541" cy="218.89" r="10" style="fill:#e30032"/><circle cx="496.81" cy="227.18" r="10" style="fill:#e30032"/><circle cx="464.5" cy="253.21" r="10" style="fill:#e30032"/><circle cx="447.11" cy="286.46" r="10" style="fill:#e30032"/><circle cx="443.44" cy="323.57" r="10" style="fill:#e30032"/><circle cx="453.06" cy="359.95" r="10" style="fill:#e30032"/><circle cx="478.04" cy="393.11" r="10" style="fill:#e30032"/><circle cx="634" cy="279.39" r="10" style="fill:#e30032"/><circle cx="640" cy="318.39" r="10" style="fill:#e30032"/><circle cx="631.5" cy="356.39" r="10" style="fill:#e30032"/><circle cx="611" cy="389.39" r="10" style="fill:#e30032"/><text transform="translate(144 83.89)" style="font-size:38px;fill:#fff;font-family:HelveticaNeue-LightItalic, Helvetica Neue;font-style:italic">Shell</text><line x1="245.82" y1="92.19" x2="431.88" y2="263.45" style="fill:none;stroke:#fff;stroke-miterlimit:10;stroke-width:3px"/><circle cx="238.98" cy="87.39" r="7.02" style="fill:none;stroke:#fff;stroke-miterlimit:10;stroke-width:3px"/><circle cx="138.24" cy="255.37" r="7.02" style="fill:none;stroke:#fff;stroke-miterlimit:10;stroke-width:3px"/><circle cx="202.02" cy="476.39" r="7.02" style="fill:none;stroke:#fff;stroke-miterlimit:10;stroke-width:3px"/><circle cx="820.36" cy="96.51" r="7.02" style="fill:none;stroke:#fff;stroke-miterlimit:10;stroke-width:3px"/><circle cx="848" cy="246.37" r="7.02" style="fill:none;stroke:#fff;stroke-miterlimit:10;stroke-width:3px"/><circle cx="881.42" cy="636.19" r="7.02" style="fill:none;stroke:#fff;stroke-miterlimit:10;stroke-width:3px"/><circle cx="782.98" cy="413.39" r="7.02" style="fill:none;stroke:#fff;stroke-miterlimit:10;stroke-width:3px"/><text transform="translate(801 423.39)" style="font-size:38px;fill:#fff;font-family:HelveticaNeue-LightItalic, Helvetica Neue;font-style:italic">Lifting charge</text><line x1="563" y1="539.39" x2="776.84" y2="417.07" style="fill:none;stroke:#fff;stroke-miterlimit:10;stroke-width:3px"/><rect x="726" y="553.39" width="191.53" height="11" style="fill:none;stroke:#fff;stroke-miterlimit:10;stroke-width:3px"/><line x1="729.53" y1="563.88" x2="733.5" y2="554.39" style="fill:none;stroke:#fff;stroke-miterlimit:10"/><line x1="739.75" y1="563.02" x2="743.25" y2="554.52" style="fill:none;stroke:#fff;stroke-miterlimit:10"/><line x1="748.6" y1="563.75" x2="752.5" y2="554.39" style="fill:none;stroke:#fff;stroke-miterlimit:10"/><line x1="758.75" y1="563.02" x2="762.25" y2="554.52" style="fill:none;stroke:#fff;stroke-miterlimit:10"/><line x1="767.03" y1="564.38" x2="771" y2="554.89" style="fill:none;stroke:#fff;stroke-miterlimit:10"/><line x1="777.25" y1="563.52" x2="780.75" y2="555.02" style="fill:none;stroke:#fff;stroke-miterlimit:10"/><line x1="786.1" y1="564.25" x2="790" y2="554.89" style="fill:none;stroke:#fff;stroke-miterlimit:10"/><line x1="796.25" y1="563.52" x2="799.75" y2="555.02" style="fill:none;stroke:#fff;stroke-miterlimit:10"/><line x1="806.03" y1="563.63" x2="810" y2="554.14" style="fill:none;stroke:#fff;stroke-miterlimit:10"/><line x1="816.25" y1="562.77" x2="819.75" y2="554.27" style="fill:none;stroke:#fff;stroke-miterlimit:10"/><line x1="825.1" y1="563.5" x2="829" y2="554.14" style="fill:none;stroke:#fff;stroke-miterlimit:10"/><line x1="835.25" y1="562.77" x2="838.75" y2="554.27" style="fill:none;stroke:#fff;stroke-miterlimit:10"/><line x1="844.03" y1="563.88" x2="848" y2="554.39" style="fill:none;stroke:#fff;stroke-miterlimit:10"/><line x1="854.25" y1="563.02" x2="857.75" y2="554.52" style="fill:none;stroke:#fff;stroke-miterlimit:10"/><line x1="863.1" y1="563.75" x2="867" y2="554.39" style="fill:none;stroke:#fff;stroke-miterlimit:10"/><line x1="873.25" y1="563.02" x2="876.75" y2="554.52" style="fill:none;stroke:#fff;stroke-miterlimit:10"/><line x1="882" y1="563.02" x2="885.5" y2="554.52" style="fill:none;stroke:#fff;stroke-miterlimit:10"/><line x1="890.85" y1="563.75" x2="894.75" y2="554.39" style="fill:none;stroke:#fff;stroke-miterlimit:10"/><line x1="901" y1="563.02" x2="904.5" y2="554.52" style="fill:none;stroke:#fff;stroke-miterlimit:10"/><polygon points="915.5 552.89 971 524.39 950.5 545.64 981 545.39 955.5 555.64 983 562.39 954.5 566.64 977 584.39 915.5 564.89 915.5 552.89" style="fill:#db9700"/><line x1="796" y1="562.39" x2="877" y2="632.39" style="fill:none;stroke:#fff;stroke-miterlimit:10;stroke-width:3px"/><text transform="translate(907 653.39)" style="font-size:38px;fill:#fff;font-family:HelveticaNeue-LightItalic, Helvetica Neue;font-style:italic">Fuse</text><line x1="539" y1="461.39" x2="210.67" y2="476.02" style="fill:none;stroke:#fff;stroke-miterlimit:10;stroke-width:3px"/><text transform="translate(0 484.39)" style="font-size:38px;fill:#fff;font-family:HelveticaNeue-LightItalic, Helvetica Neue;font-style:italic"><tspan style="letter-spacing:0.023990028782894735em">T</tspan><tspan x="22.04" y="0">imed fuse</tspan></text><line x1="430.81" y1="323.86" x2="146.52" y2="258.07" style="fill:none;stroke:#fff;stroke-miterlimit:10;stroke-width:3px"/><text transform="translate(4 266.39)" style="font-size:38px;fill:#fff;font-family:HelveticaNeue-LightItalic, Helvetica Neue;font-style:italic">“Stars”</text><text transform="translate(5 301.39)" style="font-size:20px;fill:#fff;font-family:HelveticaNeue-LightItalic, Helvetica Neue;font-style:italic">(these become the bulbs of<tspan x="0" y="24">light in the fi</tspan><tspan x="102.22" y="24" style="letter-spacing:-0.0179931640625em">r</tspan><tspan x="108.16" y="24">ework. They also </tspan><tspan x="0" y="48">contain the metal that c</tspan><tspan x="202.64" y="48" style="letter-spacing:-0.0179931640625em">r</tspan><tspan x="208.58" y="48">eates the</tspan><tspan x="0" y="72">color of the fi</tspan><tspan x="111.52" y="72" style="letter-spacing:-0.0179931640625em">r</tspan><tspan x="117.46" y="72">ework, e.g. coppe</tspan><tspan x="273.48" y="72" style="letter-spacing:-0.0919921875em">r</tspan><tspan x="277.94" y="72" style="letter-spacing:-0.0000244140625em">, </tspan><tspan x="0" y="96">barium, or st</tspan><tspan x="108.9" y="96" style="letter-spacing:-0.0179931640625em">r</tspan><tspan x="114.84" y="96" style="letter-spacing:-0.0000244140625em">ontiu</tspan><tspan x="157.06" y="96" style="letter-spacing:-0.0599853515625em">m</tspan><tspan x="172.52" y="96">)</tspan></text><text transform="translate(2 514.39)" style="font-size:20px;fill:#fff;font-family:HelveticaNeue-LightItalic, Helvetica Neue;font-style:italic">(this fuse p<tspan x="93.68" y="0" style="letter-spacing:-0.01796875em">r</tspan><tspan x="99.62" y="0">events the fi</tspan><tspan x="202.96" y="0" style="letter-spacing:-0.01796875em">r</tspan><tspan x="208.9" y="0">ework f</tspan><tspan x="271.52" y="0" style="letter-spacing:-0.018017578125em">r</tspan><tspan x="277.46" y="0">om </tspan><tspan x="0" y="24">exploding befo</tspan><tspan x="126.7" y="24" style="letter-spacing:-0.01796875em">r</tspan><tspan x="132.64" y="24">e it </tspan><tspan x="163.76" y="24" style="letter-spacing:-0.01796875em">r</tspan><tspan x="169.7" y="24">eaches the </tspan><tspan x="0" y="48">right height)</tspan></text><line x1="617.11" y1="301.57" x2="840.6" y2="248" style="fill:none;stroke:#fff;stroke-miterlimit:10;stroke-width:3px"/><text transform="translate(869 256.39)" style="font-size:38px;fill:#fff;font-family:HelveticaNeue-LightItalic, Helvetica Neue;font-style:italic">Bursting charge</text><text transform="translate(871 289.39)" style="font-size:20px;fill:#fff;font-family:HelveticaNeue-LightItalic, Helvetica Neue;font-style:italic">(black powder or gunpowder - this<tspan x="0" y="24">sets o</tspan><tspan x="52.22" y="24" style="letter-spacing:-0.01796875em">f</tspan><tspan x="57.04" y="24">f the fi</tspan><tspan x="109.26" y="24" style="letter-spacing:-0.01796875em">r</tspan><tspan x="115.2" y="24">ework and explodes the </tspan><tspan x="0" y="48">stars in all di</tspan><tspan x="105.92" y="48" style="letter-spacing:-0.01796875em">r</tspan><tspan x="111.86" y="48">ections)</tspan></text><text transform="translate(801 453.39)" style="font-size:20px;fill:#fff;font-family:HelveticaNeue-LightItalic, Helvetica Neue;font-style:italic">(this is the initial charge that<tspan x="0" y="24">shoots the fi</tspan><tspan x="105.18" y="24" style="letter-spacing:-0.01796875em">r</tspan><tspan x="111.12" y="24">ework into the air)</tspan></text></svg>