<svg xmlns="http://www.w3.org/2000/svg" viewBox="0 0 95.25 71.5"><title>kaboom</title><polygon points="74.09 41.19 89.5 34.47 75.59 28.58 82.27 24.52 75.27 22.25 93.5 0.5 60.84 16.01 60.15 8.52 54.96 13.31 49.42 5.05 42 14.33 36.16 7.11 34.62 14.51 13.25 1.5 27.4 25.91 13.81 26.64 21.52 35.58 14.99 39.1 21.25 41.23 0.5 55 32.4 49.07 31.93 61.22 42.49 55.23 44.86 60.98 49.4 56.45 58.25 71 60.76 54.18 66.04 57.22 65.14 51.02 94.75 57.25 74.09 41.19" style="fill:none;stroke:#fff;stroke-linecap:round;stroke-linejoin:round"/></svg>