<svg xmlns="http://www.w3.org/2000/svg" viewBox="0 0 299 299"><title>outdoors</title><rect width="299" height="299"/><path d="M223.21,227.61V190.2c38-7.86,2.59-73.74-3.32-79.91a7.69,7.69,0,0,0-5.5-2.79,7,7,0,0,0-5.11,2.79c-1.58,1.83-5.79,9-9.93,18.26,3.93,17.38,4.87,34.87-.83,48.23a40,40,0,0,1-3.73,6.8,21,21,0,0,0,12,6.6v36.16c-15.36-1.06-30.22-1.8-41-2.27V191.28c59.91-9.5,6.63-115.64-2.14-124.79-2.79-3-5.73-4.07-8-4.07a10.28,10.28,0,0,0-7.48,4.07c-7.86,9.14-60.6,115.09-.95,124.76v32.27c-6.35.22-25.14.93-46.2,2.25V202.88c8.67,0,17.79-4,25.63-10.71A37.14,37.14,0,0,1,115,177.7c-7.41-16.15-6-39.66,4.27-69.89.94-2.77,1.93-5.51,3-8.2A128.91,128.91,0,0,0,105,90c-9.93-4.67-34.16-5-40.14,15.47-14-1-28.76,18.69-16.67,32.81,0,0-19.68,4.85-15.3,27,4.14,21,22,18.45,22,18.45C57.06,195.9,69.23,200.41,83.13,202v25c-27,2.1-53.17,5.2-58.47,9.57H274.34C269.53,232.61,247.47,229.68,223.21,227.61Z" style="fill:#fff"/></svg>