<svg xmlns="http://www.w3.org/2000/svg" viewBox="0 0 299 299"><title>partyhat_1</title><rect width="299" height="299"/><path d="M156.73,79.85A44.64,44.64,0,0,1,165.65,85C171,82.43,196,79.19,212,122.34c3.28,8.87,15.73,51.17,22.06,64.14a50.88,50.88,0,0,0-8.18,6.1,96,96,0,0,1,1.34,10.88c1.85-2.38,6.77-7.15,10.69-9.22,5.87,10.82,13.16,19.63,23.27,25.51,11.19,6.5,18,4.41,21.08,2.59A11.68,11.68,0,0,0,288,211.19c-.81-11.18-10.35-20.3-20.92-25.72-8.37-4.3-16.83-5.19-25.14-2.56-7-14.37-15.11-44.41-21.8-63.42C204.84,76.15,174.49,67.9,156.73,79.85ZM277.81,214.93c-1.84,1.14-6.08,1-12.33-2.64-8.27-4.81-14.49-12.24-19.63-21.49a23.67,23.67,0,0,1,17.2,2.31C280,202,281.07,212.9,277.81,214.93Z" style="fill:#fff"/><path d="M54,223l70.61-.32L136,213.43l-1.31-15.68,13.25,8.49,14.52-6.1-4,15.24,6.14,7.11,44.9-.49c5.71-2,7.9-11.15,5.13-26.83-2.62-14.82-9.16-32.63-17.63-49.44s-18.87-32.64-29.17-43.48c-10.9-11.47-19.63-15.2-24.45-11.52L78.15,177.12l9.75,1.2L96,169.23l2.31,11.92L109.4,186l-10.62,5.89L97.61,204l-8.88-8.28-11.85,2.62,5.13-11L77,178.72,49.72,215.49c-6.69-.59-23-6.6-35.86-21.09L9,207.8c13.23,11.35,32.5,13.9,39.44,12.43C49.3,221.67,53.91,222.82,54,223ZM160,123l2.21,17.32,15.52,8L162,155.73,159.18,173l-12-12.7L130,162.91l8.38-15.31L130.49,132l17.15,3.24Z" style="fill:#fff"/></svg>