<svg xmlns="http://www.w3.org/2000/svg" viewBox="0 0 299 299"><title>rocket-icon_1</title><rect width="299" height="299"/><path d="M152.71,197.37c-2.1-.61-6.42-2.17-8.13-2.9-2.61,6.36-9.53,15.1-13.32,17.76l-4-22.45-17,19.11-25.37-3.46,12.92,22.1L86.59,250.59l25-5.44,18.49,17.69,2.55-25.46,22.56-12.11-17.14-7.52C142.42,214.65,150.67,203.55,152.71,197.37ZM124.51,232l-1.24,12.43-9-8.63-12.21,2.65,5.44-11.26-6.3-10.77,12.38,1.68,8.3-9.32,2.22,12.3,11.43,5Z" style="fill:#fff"/><polygon points="103.14 178.49 94.62 181.23 105.07 203.52 108.42 202.44 103.14 178.49" style="fill:#fff"/><polygon points="59.16 234.33 89.22 229.79 89.03 226.58 58.35 225.56 59.16 234.33" style="fill:#fff"/><polygon points="106.75 275.88 110.95 253.28 107.41 252.13 97.62 272.96 106.75 275.88" style="fill:#fff"/><path d="M213.34,130.64c-11.73-.14-24.9-2.67-38.19-7.37a124,124,0,0,1-32.33-16.85l-21.28,58.5c-2.14,6.06,11.35,16.36,30.14,23,10,3.52,19.58,5.31,26.58,5.31L149.4,274.42h12.2Z" style="fill:#fff"/><path d="M238.65,109.1,210.57,23.17,134.69,72.31c-4.24,12,15.56,30,44.29,40.12C193.91,117.68,231.63,125.58,238.65,109.1Zm-34.41-74L155.11,90.75C151.34,88,144.47,81.37,143.66,78Z" style="fill:#fff"/></svg>