<svg xmlns="http://www.w3.org/2000/svg" xmlns:xlink="http://www.w3.org/1999/xlink" viewBox="0 0 468.09 469.08"><defs><clipPath id="a" transform="translate(0 -253.64)"><rect x="38.11" y="251.52" width="438" height="359.48" style="fill:none"/></clipPath><clipPath id="b" transform="translate(0 -253.64)"><rect x="38.11" width="792" height="612" style="fill:none"/></clipPath><linearGradient id="c" x1="1734.36" y1="1161.32" x2="1778.53" y2="1161.32" gradientTransform="matrix(0.39, 0.92, -0.92, 0.39, 740.57, -1432.21)" gradientUnits="userSpaceOnUse"><stop offset="0" stop-color="#fffeee"/><stop offset="0.47" stop-color="#fffeee"/><stop offset="1" stop-color="#fffeee"/></linearGradient></defs><title>rockets_1</title><g style="clip-path:url(#a)"><g style="clip-path:url(#b)"><path d="M56.71,546.25a1.88,1.88,0,0,0,1.52,2.17l.45.07a1.89,1.89,0,0,0,2.08-1.65L76.25,440.15A1.89,1.89,0,0,0,74.73,438l-.45-.06a1.88,1.88,0,0,0-2.08,1.64Z" transform="translate(0 -253.64)" style="fill:#fff"/><path d="M56.71,546.25a1.67,1.67,0,1,0,3.26.48L75.46,440a1.67,1.67,0,1,0-3.26-.47Z" transform="translate(0 -253.64)" style="fill:#fff"/><path d="M93.44,514.63a1.43,1.43,0,0,1-.27-.09,13.07,13.07,0,0,1-6-6.09c-4.51-9.12-3-21.11,4.26-32.91.63-1,1.25-2,1.87-3,3.18-5,6.18-9.78,7.23-16,2.12-12.53.46-17.86-1.3-20.13a1,1,0,1,1,1.52-1.18c2.91,3.74,3.48,11,1.68,21.63-1.12,6.6-4.22,11.51-7.5,16.71-.61,1-1.24,2-1.86,3-3.24,5.31-10.15,19-4.18,31.05A11.2,11.2,0,0,0,94,512.8a1,1,0,0,1,.47,1.28A1,1,0,0,1,93.44,514.63Z" transform="translate(0 -253.64)" style="fill:#fff"/><path d="M71.5,444.37s7.64,3,21.59,5,22.12,1.32,22.12,1.32l20.32-140-43.71-6.34Z" transform="translate(0 -253.64)" style="fill:#fff"/><path d="M128,309.66l-20.32,140a5.48,5.48,0,0,0,1,1.17c4.24.11,6.55-.08,6.55-.08l20.32-140Z" transform="translate(0 -253.64)" style="fill:#fff"/><path d="M78.06,445.32l20.32-140-6.56-.95-20.32,140s1.91.75,5.57,1.76A4.58,4.58,0,0,0,78.06,445.32Z" transform="translate(0 -253.64)" style="fill:#fff"/><path d="M91.18,449.11c.63.1,1.25.2,1.91.29s1.28.18,1.9.26l20.59-141.8-3.81-.56Zm35.12-139.7L105.79,450.68c1.45.08,2.74.12,3.87.14L130.11,310ZM76.79,446.05c1.09.3,2.35.63,3.75,1l20.51-141.27-3.8-.56Z" transform="translate(0 -253.64)"/><path d="M77.88,309s9.53,6.13,34.18,9.71,35.52.41,35.52.41l-26.07-65.51Z" transform="translate(0 -253.64)" style="fill:#fff"/><path d="M105.08,317.59,117.83,264,86.24,312.73A124.65,124.65,0,0,0,105.08,317.59Z" transform="translate(0 -253.64)"/><path d="M84.36,564.11a1.87,1.87,0,0,0,.73,2.54l.41.21A1.87,1.87,0,0,0,88,566l49.47-95.8a1.87,1.87,0,0,0-.73-2.54l-.4-.21a1.88,1.88,0,0,0-2.5.88Z" transform="translate(0 -253.64)" style="fill:#fff"/><path d="M84.36,564.11a1.67,1.67,0,1,0,2.93,1.51l49.47-95.79a1.67,1.67,0,1,0-2.93-1.51Z" transform="translate(0 -253.64)" style="fill:#fff"/><path d="M126.07,521a1.12,1.12,0,0,1-.33-.28,1,1,0,0,1,.2-1.35c7.53-5.54,10.86-17.35,11.46-26.56.1-1.41.14-2.84.19-4.35.21-7,.45-15,6.46-20.32a1,1,0,0,1,1.28,1.44c-5.39,4.74-5.61,12-5.82,18.94,0,1.46-.09,3-.18,4.42-.64,9.64-4.19,22.05-12.24,28A1,1,0,0,1,126.07,521Z" transform="translate(0 -253.64)" style="fill:#fff"/><path d="M113.79,463.44s6.24,5.33,18.76,11.8S153,483.71,153,483.71L217.93,358l-39.24-20.27Z" transform="translate(0 -253.64)" style="fill:#fff"/><path d="M163.42,367.33l-2.3,4.46c10.89,2.74,29.52,5.95,48.45,2.46l2.87-5.56C193.89,373,174.77,370,163.42,367.33Zm45.82-13.78c-14.45,1.2-28.14-1.09-37.05-3.2l-2.3,4.46c10.61,2.66,28.59,5.78,47,2.7ZM132.55,475.24c1.73.89,3.36,1.69,4.9,2.42a97.75,97.75,0,0,0,19.49-1.51l2.87-5.56c-11.5,2.67-23.23,2.55-33.18,1.42Q129.32,473.56,132.55,475.24Zm19.8-86.47c10.89,2.74,29.52,6,48.44,2.46l2.87-5.56c-18.54,4.31-37.66,1.34-49-1.35Zm-35.08,67.94c10.88,2.74,29.52,6,48.44,2.46l2.87-5.56c-18.54,4.3-37.67,1.33-49-1.36Zm8.77-17c10.88,2.73,29.52,5.94,48.44,2.45l2.87-5.56c-18.54,4.31-37.67,1.34-49-1.35Zm8.77-17c10.88,2.74,29.52,5.95,48.44,2.46l2.87-5.56c-18.54,4.31-37.67,1.34-49-1.35Zm8.77-17c10.88,2.73,29.52,5.95,48.44,2.46l2.87-5.57c-18.54,4.31-37.66,1.34-49-1.35Z" transform="translate(0 -253.64)"/><path d="M164,337.59s7,8.91,29.14,20.34,33.45,12,33.45,12l-3.27-70.43Z" transform="translate(0 -253.64)" style="fill:#fff"/><path d="M186.92,354.56,216.47,308,170.7,343.82A124.56,124.56,0,0,0,186.92,354.56Z" transform="translate(0 -253.64)"/><path d="M174.56,658.36a1.88,1.88,0,0,0-.32,2.63l.29.35a1.87,1.87,0,0,0,2.64.17l83-68.81a1.87,1.87,0,0,0,.32-2.62l-.29-.35a1.88,1.88,0,0,0-2.64-.18Z" transform="translate(0 -253.64)" style="fill:#e39358"/><path d="M174.56,658.36a1.67,1.67,0,1,0,2.11,2.54l83-68.81a1.67,1.67,0,1,0-2.1-2.54Z" transform="translate(0 -253.64)" style="fill:#c49a6c"/><path d="M229.81,635a.89.89,0,0,1-.19-.39,1,1,0,0,1,.71-1.16c9.09-2.15,16.78-11.72,20.94-20,.64-1.26,1.24-2.56,1.87-3.93,2.95-6.41,6.3-13.66,13.9-16.18a1,1,0,0,1,.61,1.83c-6.81,2.25-9.83,8.81-12.76,15.15-.61,1.33-1.25,2.7-1.9,4-4.36,8.62-12.48,18.65-22.21,21A1,1,0,0,1,229.81,635Z" transform="translate(0 -253.64)" style="fill:#c49a6c"/><path d="M241,577.23s3.66,7.35,12.65,18.2,15.54,15.8,15.54,15.8L378.11,521l-28.19-34Z" transform="translate(0 -253.64)" style="fill:#fffef2"/><path d="M324.31,508.2l-3.86,3.2c8.94,6.77,24.84,17,43.62,21.21l4.81-4C350.13,525.33,333.69,515.11,324.31,508.2Zm47.55,5.24c-13.76-4.55-25.47-12-32.84-17.44l-3.86,3.2c8.72,6.61,24,16.51,42.21,20.88Zm-118.18,82q1.86,2.24,3.56,4.14a97.89,97.89,0,0,0,18.53,6.23l4.82-4c-11.63-2-22.38-6.74-31.1-11.67C250.74,591.79,252.13,593.55,253.68,595.43Zm52.05-71.83c8.95,6.77,24.84,17,43.62,21.21l4.82-4c-18.75-3.29-35.19-13.51-44.58-20.42Zm-58.86,48.8c8.94,6.77,24.84,17,43.62,21.2l4.82-4c-18.75-3.29-35.2-13.5-44.58-20.41Zm14.71-12.2c8.95,6.77,24.84,17,43.63,21.21l4.81-4c-18.75-3.28-35.19-13.5-44.58-20.41ZM276.3,548c8.95,6.77,24.84,17,43.62,21.21l4.82-4c-18.75-3.28-35.2-13.5-44.58-20.41ZM291,535.8c8.94,6.77,24.84,17,43.61,21.21l4.82-4c-18.75-3.28-35.19-13.5-44.57-20.41Z" transform="translate(0 -253.64)"/><path d="M336.47,481.06s3,10.93,18.86,30.11,26.1,24.11,26.1,24.11L406,469.18Z" transform="translate(0 -253.64)" style="fill:#fff"/><path d="M350.93,505.64l45.39-31.26-56.12,15A124,124,0,0,0,350.93,505.64Z" transform="translate(0 -253.64)"/><path d="M116.59,590.27a1.88,1.88,0,0,0-.35,2.62l.29.36a1.88,1.88,0,0,0,2.64.19l83.72-67.93a1.87,1.87,0,0,0,.35-2.62l-.29-.35a1.87,1.87,0,0,0-2.64-.2Z" transform="translate(0 -253.64)" style="fill:#fff"/><path d="M116.59,590.27a1.67,1.67,0,1,0,2.08,2.56l83.72-67.93a1.67,1.67,0,1,0-2.08-2.56Z" transform="translate(0 -253.64)" style="fill:#fff"/><path d="M162.74,580.93a1,1,0,0,1-.09-1.09c7.37-12.54,16.8-21.77,28.85-28.24,1.62-.86,3.37-1.7,5.23-2.58,7.47-3.55,15.93-7.57,17.87-15.29a1,1,0,0,1,1.17-.7,1,1,0,0,1,.7,1.17c-2.17,8.59-11.06,12.83-18.91,16.56-1.84.87-3.57,1.7-5.15,2.54-11.72,6.29-20.92,15.29-28.1,27.51a1,1,0,0,1-1.31.35A.83.83,0,0,1,162.74,580.93Z" transform="translate(0 -253.64)" style="fill:#fff"/><path d="M190.43,517.87s3.58,7.39,12.46,18.33,15.37,16,15.37,16l109.83-89.11-27.83-34.3Z" transform="translate(0 -253.64)" style="fill:#fff"/><path d="M220.5,526.79a150.75,150.75,0,0,1-1.69-19.86,96,96,0,0,1,.29-9.78c.08-.93.18-1.86.29-2.78l-14.15,11.49-.06.69a165.93,165.93,0,0,0,.06,21.85c.27,4,.67,8,1.23,12.06a95.78,95.78,0,0,0,11.79,11.71l6.66-5.4c-.07-.24-.15-.47-.22-.71A139.12,139.12,0,0,1,220.5,526.79Z" transform="translate(0 -253.64)"/><path d="M248,504.45a152.48,152.48,0,0,1-1.69-19.85c-.05-3.3,0-6.59.29-9.79.08-.93.18-1.86.29-2.77l-14.15,11.48c0,.23,0,.46-.05.69a165.93,165.93,0,0,0,.05,21.85,156.65,156.65,0,0,0,2.91,21.84c.6,2.78,1.29,5.57,2.15,8.39l14.62-11.86c-.07-.24-.15-.47-.22-.71A140.59,140.59,0,0,1,248,504.45Z" transform="translate(0 -253.64)"/><path d="M307.3,479.05a139.26,139.26,0,0,1-4.2-19.28,152.49,152.49,0,0,1-1.7-19.85c0-3.18,0-6.33.27-9.42l-1.41-1.74-12.42,10.08c0,.23,0,.46,0,.7a165.78,165.78,0,0,0,0,21.84,158.54,158.54,0,0,0,2.92,21.85c.6,2.77,1.28,5.56,2.14,8.38l14.63-11.86C307.44,479.51,307.37,479.28,307.3,479.05Z" transform="translate(0 -253.64)"/><path d="M275.56,482.11a152.48,152.48,0,0,1-1.69-19.86c-.05-3.29,0-6.58.29-9.78.08-.93.19-1.86.3-2.77L260.3,461.18c0,.23,0,.46-.05.7a167.52,167.52,0,0,0,.05,21.84,156.69,156.69,0,0,0,2.92,21.84c.59,2.78,1.28,5.57,2.14,8.39L280,502.09c-.08-.24-.16-.47-.23-.7A142.57,142.57,0,0,1,275.56,482.11Z" transform="translate(0 -253.64)"/><path d="M286.88,422.71s2.85,11,18.54,30.3,25.84,24.39,25.84,24.39l25.24-65.83Z" transform="translate(0 -253.64)" style="fill:#fff"/><path d="M301.07,447.44l45.72-30.78-56.27,14.43A123.2,123.2,0,0,0,301.07,447.44Z" transform="translate(0 -253.64)"/><path d="M73.58,589.61a2.09,2.09,0,0,0,.18,2.94l.39.33a2.1,2.1,0,0,0,2.93-.35l76.8-92.2a2.09,2.09,0,0,0-.19-2.94l-.38-.33a2.1,2.1,0,0,0-2.93.36Z" transform="translate(0 -253.64)" style="fill:#fff"/><path d="M73.58,589.61A1.86,1.86,0,1,0,76.4,592l76.8-92.2a1.85,1.85,0,1,0-2.82-2.34Z" transform="translate(0 -253.64)" style="fill:#fff"/><path d="M129.11,571.73a1.08,1.08,0,0,1-.28-1.29c4.68-9.72,12.89-16.7,20.83-23.45,11.46-9.75,22.29-19,23.09-35.68a1.07,1.07,0,1,1,2.14.11c-.85,17.65-12.53,27.59-23.84,37.2-7.77,6.61-15.8,13.44-20.28,22.75a1.08,1.08,0,0,1-1.43.51A.91.91,0,0,1,129.11,571.73Z" transform="translate(0 -253.64)" style="fill:#fff"/><path d="M146.92,501.57s5.49,7.3,17.55,17.34S184.69,533,184.69,533L285.44,412.09l-37.77-31.47Z" transform="translate(0 -253.64)" style="fill:#fff"/><path d="M167.85,508.14l-5.64,6.51-3-.33c1.6,1.45,3.34,3,5.28,4.59,2.2,1.84,4.28,3.48,6.2,4.93l6.86-3.91-7.94-3.35Zm105.94-89.25,7.5-4.26-8-3.35-1.74-8.44L266,409.35l-8.56-1,4.45,7.38-3.55,7.85,8.39-2,6.12,5.58.3-.36ZM225,471.1l.87,8.57-6.58,5.57,4.43,1,8.93-10.71-.32.13Zm-23.34-30,7.49-4.27-6.1-2.57-8.22,9.86,6.1,5.57Zm21.56-15.89,8.18-5.8,9.4,3.45-3-9.56,6.19-7.88-10-.12-3-4.54L220.7,413l2.88,2.14ZM189.63,472l.32,8.61,6.64-5.48,8.29,2.36-3.17-8,4.81-7.15-8.6.53-5.32-6.78-2.15,8.35-8.09,3Zm17.54,24.79-10.83.67-6.69-8.54-2.72,10.51-10.19,3.72L185.9,509l.4,10.84,8.36-6.91,5.5,1.57,3-3.57-2-5.11Zm-30-14.14-7.86-2.1-1.47-4.12-9,10.76-2,6.88,7.59-2.93,6.71,4.6-.43-8.13Zm48.87-37.25-4.32,9.54L232,452.54l7.74,7,.89-10.43,9.1-5.18L240,439.91l-2.12-10.25-6.85,7.91-10.41-1.15Z" transform="translate(0 -253.64)"/><path d="M231.75,376.89s5.48,11.37,26.77,29.11S292,427.07,292,427.07l13.39-77.33Z" transform="translate(0 -253.64)" style="fill:#fff"/><path d="M252.57,400.85l43.31-43.45-58.34,27.87A138.78,138.78,0,0,0,252.57,400.85Z" transform="translate(0 -253.64)"/><path d="M191.62,700a1.89,1.89,0,0,0-1.08,2.42l.18.42a1.88,1.88,0,0,0,2.48.93l99.44-41.65a1.87,1.87,0,0,0,1.07-2.42l-.18-.42a1.88,1.88,0,0,0-2.47-.94Z" transform="translate(0 -253.64)" style="fill:#e39358"/><path d="M191.62,700a1.67,1.67,0,1,0,1.27,3l99.44-41.66a1.8,1.8,0,0,0,1.14-2.26,1.82,1.82,0,0,0-2.41-.78Z" transform="translate(0 -253.64)" style="fill:#c49a6c"/><path d="M248.3,697.45l-.06-.19c-1.58-8,8-14.9,27.67-19.93,1.3-.33,2.88-.66,4.56-1,8.08-1.65,20.29-4.12,21.46-12.33a1,1,0,0,1,1.91.27c-1.36,9.55-14.38,12.19-23,13.94-1.65.34-3.21.66-4.46,1-18.27,4.68-27.59,11-26.26,17.7a1,1,0,0,1-.75,1.13A1,1,0,0,1,248.3,697.45Z" transform="translate(0 -253.64)" style="fill:#c49a6c"/><path d="M278.83,641.73s1.36,8.09,6.8,21.1,10.27,19.64,10.27,19.64l130.45-54.64-17.07-40.74Z" transform="translate(0 -253.64)"/><path d="M287.68,638s2.72,7.51,8.16,20.52,8.9,20.21,8.9,20.21l27.49-11.51-17.06-40.74Z" transform="translate(0 -253.64)"/><path d="M337,617.39s2.72,7.51,8.17,20.52,8.9,20.21,8.9,20.21l27.49-11.51-17.06-40.74Z" transform="translate(0 -253.64)"/><path d="M376.46,600.84s2.72,7.52,8.17,20.52,8.9,20.21,8.9,20.21L421,630.06,404,589.32Z" transform="translate(0 -253.64)"/><path d="M352.08,611.05l-2.7,1.13a127.31,127.31,0,0,0,7.16,23,107.38,107.38,0,0,0,9.5,18l2.7-1.13C360.69,640.11,354.85,624.76,352.08,611.05Zm-26.3,11-2.7,1.13a127.31,127.31,0,0,0,7.16,23,106.61,106.61,0,0,0,9.49,18l2.71-1.14C334.39,651.13,328.55,635.78,325.78,622.07Zm52.6-22-2.7,1.14a128.26,128.26,0,0,0,7.16,23,107.38,107.38,0,0,0,9.5,18l2.7-1.13C387,629.09,381.16,613.74,378.38,600Zm-78.9,33.05-2.71,1.14a128.26,128.26,0,0,0,7.16,22.95,107.48,107.48,0,0,0,9.5,18l2.71-1.14C308.09,662.15,302.25,646.79,299.48,633.08ZM371.37,603l-9.05,3.79a131.63,131.63,0,0,0,7.23,22.91,111.1,111.1,0,0,0,9.44,18l9-3.78C380,632.19,374.07,616.57,371.37,603Zm-26.3,11L336,617.78a131,131,0,0,0,7.23,22.91,111.52,111.52,0,0,0,9.44,18l9-3.78C353.67,643.21,347.77,627.59,345.07,614Zm52.6-22-9.05,3.79a132.86,132.86,0,0,0,7.23,22.92,112.74,112.74,0,0,0,9.44,18l9-3.79C406.28,621.17,400.37,605.55,397.67,592ZM292.46,636l-9,3.8a132.76,132.76,0,0,0,7.23,22.91,111.94,111.94,0,0,0,9.44,18l9-3.79C301.07,665.25,295.16,649.62,292.46,636Zm26.3-11-9.05,3.79a133,133,0,0,0,7.23,22.91,113.13,113.13,0,0,0,9.44,18l9-3.79C327.37,654.23,321.46,638.61,318.76,625Z" transform="translate(0 -253.64)" style="fill:url(#c)"/><path d="M398.14,577.52s-.35,11.32,9.27,34.29,17.94,30.67,17.94,30.67l42.74-56.08Z" transform="translate(0 -253.64)" style="fill:#fff"/><path d="M404.81,605.24l52.53-16.68-58.06-2A122.53,122.53,0,0,0,404.81,605.24Z" transform="translate(0 -253.64)"/><path d="M108.52,674.34a2.14,2.14,0,0,0-.9,2.88l.25.45a2.14,2.14,0,0,0,2.92.74L217.9,618.76a2.14,2.14,0,0,0,.91-2.87l-.25-.45a2.14,2.14,0,0,0-2.92-.74Z" transform="translate(0 -253.64)" style="fill:#e39358"/><path d="M108.52,674.34a2.07,2.07,0,0,0-1,2.71,2,2,0,0,0,2.82.57L217.46,618a1.89,1.89,0,1,0-1.82-3.27Z" transform="translate(0 -253.64)" style="fill:#c49a6c"/><path d="M173.94,682.59a9.93,9.93,0,0,1-.72-8.69c2.82-7.44,14.07-13,20.79-14.36,2.46-.51,5.49-.87,8.7-1.26,13.21-1.59,29.63-3.58,30.51-16.87a1.1,1.1,0,0,1,2.19.14c-1,15.11-19.17,17.3-32.44,18.9-3.16.39-6.15.75-8.52,1.24-6.49,1.34-16.76,6.6-19.18,13-1,2.75-.54,5.53,1.52,8.27a1.1,1.1,0,0,1-1.76,1.32A15.94,15.94,0,0,1,173.94,682.59Z" transform="translate(0 -253.64)" style="fill:#c49a6c"/><path d="M210.81,617.39s2.55,9,10.35,23,14.09,20.9,14.09,20.9L375.76,583l-24.43-43.88Z" transform="translate(0 -253.64)"/><path d="M214.54,624.08s1.3,6.73,6.89,16.77,10.62,14.68,10.62,14.68l140.52-78.24-17.51-31.46Z" transform="translate(0 -253.64)"/><path d="M305.11,593.62l-8.48.42-5.15-6.75-2.22,8.2-8,2.82,7.11,4.64.2,8.49,6.62-5.32,8.13,2.42-3-7.93Zm-27.89,15.53-8.48.42-5.15-6.74L261.37,611l-8,2.82,7.11,4.64.2,8.49,6.61-5.33,8.14,2.43-3-7.93ZM333,578.09l-8.47.42-5.16-6.74L317.15,580l-8,2.82,7.11,4.64.21,8.49,6.6-5.33L331.2,593l-3-7.93Zm38.94-1.94L230.35,655c.72,1,1.38,1.9,2,2.66L373.53,579Zm-159.6,45.64c.34.9.75,1.92,1.23,3.07L355.16,546l-1.6-2.87Zm32.17,9.88,4.82-7-8.47.42-5.16-6.74-2.22,8.19-8,2.82,7.11,4.64.2,8.49,6.61-5.33,8.14,2.43Zm116.38-69.11-8.48.42-5.15-6.74L345,564.43l-8,2.82,7.11,4.64.21,8.49,6.61-5.33,8.13,2.43-3-7.93Z" transform="translate(0 -253.64)" style="fill:#fffef2"/><path d="M337.53,529.73s1,12.85,14.81,37.59,24.16,32.39,24.16,32.39l41.2-68.78Z" transform="translate(0 -253.64)" style="fill:#fff"/><path d="M348.57,560.22l57.26-25.5L340,539.84A139.54,139.54,0,0,0,348.57,560.22Z" transform="translate(0 -253.64)"/><path d="M46.55,692.2a2.52,2.52,0,0,0,2.67,2.35l.61-.06A2.51,2.51,0,0,0,52,691.7L38.87,547.65a2.51,2.51,0,0,0-2.67-2.34l-.6.05a2.52,2.52,0,0,0-2.2,2.79Z" transform="translate(0 -253.64)" style="fill:#fff"/><path d="M46.55,692.2a2.24,2.24,0,1,0,4.41-.4l-13.16-144a2.42,2.42,0,0,0-2.43-2.37,2.43,2.43,0,0,0-2,2.77Z" transform="translate(0 -253.64)" style="fill:#fff"/><path d="M86.71,625.57A11.72,11.72,0,0,1,77,622.2c-6.68-6.6-7.27-21.37-5.56-29.28.63-2.9,1.69-6.35,2.8-10,4.6-15,10.31-33.67-3.61-41a1.28,1.28,0,0,1-.55-1.74,1.3,1.3,0,0,1,1.75-.54c15.82,8.29,9.5,28.94,4.89,44-1.11,3.59-2.14,7-2.75,9.78-1.65,7.65-.89,21.24,4.85,26.9,2.47,2.44,5.71,3.22,9.65,2.32A1.29,1.29,0,0,1,89,625.2,18.42,18.42,0,0,1,86.71,625.57Z" transform="translate(0 -253.64)" style="fill:#fff"/><path d="M34,554.65s10.9,1.53,29.73-.19S93,549.26,93,549.26l-17.26-189-59,5.38Z" transform="translate(0 -253.64)"/><path d="M43,553.83s7.88,1.81,21.37.57S85.29,550,85.29,550L68,361l-42.29,3.86Z" transform="translate(0 -253.64)"/><path d="M53.42,441.57l-3.59,9.35-9.74,2.33,7.78,6.31-.79,10,8.4-5.45,9.26,3.84-2.59-9.68,6.51-7.61-10-.54Zm3.43,37.51-3.6,9.34-9.74,2.34,7.78,6.31-.78,10,8.39-5.45,9.26,3.83-2.59-9.67,6.51-7.62-10-.53Zm-6.85-75-3.6,9.34-9.74,2.34,7.78,6.31-.78,10,8.4-5.44,9.25,3.83-2.58-9.67,6.5-7.62-10-.53Zm16.51-42.93,17.38,190.4c1.44-.3,2.71-.58,3.81-.85L70.36,360.79Zm-27,194c1.14.06,2.44.11,3.91.14L26,364.84l-3.85.35Zm26-30-5.23-8.54-3.59,9.35-9.75,2.33,7.79,6.31-.79,10,8.4-5.45L71.58,543,69,533.27l6.51-7.61ZM46.57,366.56,43,375.91l-9.74,2.33L41,384.55l-.79,10,8.4-5.45,9.26,3.83-2.59-9.67,6.51-7.62-10-.53Z" transform="translate(0 -253.64)" style="fill:#fffef2"/><path d="M0,376.08s14.35,5,47.62,2,46.49-10.58,46.49-10.58L39.6,290.17Z" transform="translate(0 -253.64)" style="fill:#fff"/><path d="M38.16,378.74,38,304.79l-25.95,73.5A167.27,167.27,0,0,0,38.16,378.74Z" transform="translate(0 -253.64)"/><path d="M59.76,699.69a1.17,1.17,0,0,1-.28-.17,15.15,15.15,0,0,1-5.17-8.39c-2.75-11.43,2.08-24.55,13.23-36,1-1,1.93-2,2.87-2.9,4.87-4.86,9.47-9.45,12.25-16.18,5.59-13.58,5.09-20,3.68-23a1.11,1.11,0,0,1,2-.95c2.33,5,1.11,13.31-3.64,24.82C81.77,644,77,648.78,72,653.81c-.94.94-1.9,1.89-2.86,2.88-5,5.15-16.3,18.76-12.66,33.92a13,13,0,0,0,4.37,7.16,1.11,1.11,0,0,1-1.08,1.92Z" transform="translate(0 -253.64)" style="fill:#fff"/><path d="M53,614.9s7.84,5.33,23,11.19,24.6,7.14,24.6,7.14L159.38,480.7l-47.63-18.34Z" transform="translate(0 -253.64)"/><path d="M151.2,477.54,92.47,630.08a6,6,0,0,0,.79,1.57,75.51,75.51,0,0,0,7.4,1.58L159.38,480.7Z" transform="translate(0 -253.64)" style="fill:#fff"/><path d="M60.16,617.65l58.73-152.54-7.14-2.75L53,614.9s2,1.33,5.82,3.4A5.11,5.11,0,0,0,60.16,617.65Z" transform="translate(0 -253.64)" style="fill:#fff"/><path d="M74,625.27c.68.28,1.36.55,2.07.82l2.08.78,59.5-154.54-4.15-1.6Zm75.33-148.45-59.27,154c1.61.46,3,.84,4.32,1.15l59.11-153.51ZM58.56,618.14c1.15.62,2.47,1.31,4,2.05l59.28-154-4.15-1.6Z" transform="translate(0 -253.64)" style="fill:#fff"/><path d="M94.85,464s9.18,9.35,36,19.69,39.94,9.56,39.94,9.56L158.2,412.74Z" transform="translate(0 -253.64)" style="fill:#fff"/><path d="M123.32,480.61l28.08-57.17-48.07,46.87A142.49,142.49,0,0,0,123.32,480.61Z" transform="translate(0 -253.64)"/><path d="M35.46,718.9a2.12,2.12,0,0,0,.1,3l.38.34a2.12,2.12,0,0,0,3-.27l80.63-91.06a2.12,2.12,0,0,0-.1-3l-.39-.34a2.13,2.13,0,0,0-3,.27Z" transform="translate(0 -253.64)" style="fill:#fff"/><path d="M35.46,718.9a1.89,1.89,0,1,0,2.79,2.47l80.63-91.06a1.88,1.88,0,1,0-2.79-2.47Z" transform="translate(0 -253.64)" style="fill:#fff"/><path d="M92.27,702.49a1.11,1.11,0,0,1-.24-1.32c5-9.7,13.57-16.53,21.82-23.13,11.91-9.52,23.15-18.52,24.48-35.43a1.09,1.09,0,1,1,2.17.17c-1.4,17.85-13.55,27.57-25.29,37-8.08,6.46-16.43,13.14-21.25,22.43a1.07,1.07,0,0,1-1.46.46A1.28,1.28,0,0,1,92.27,702.49Z" transform="translate(0 -253.64)" style="fill:#fff"/><path d="M112.46,632s5.34,7.56,17.25,18.1,20,14.93,20,14.93L255.54,545.52l-37.31-33Z" transform="translate(0 -253.64)" style="fill:#fff"/><path d="M133.46,639.24l-5.91,6.43-3-.43c1.57,1.51,3.3,3.12,5.21,4.81,2.18,1.93,4.23,3.65,6.13,5.18l7.07-3.75L135,647.85Zm110.07-87.18,7.72-4.09-7.95-3.64-1.5-8.6-5.91,6.43-8.65-1.23,4.28,7.61-3.84,7.84,8.57-1.72,6,5.84.31-.36Zm-51.05,51.4.61,8.71-6.83,5.44,4.46,1.11,9.37-10.58-.32.13Zm-22.73-31.15,7.72-4.09-6.11-2.8-8.63,9.75,6,5.82Zm22.33-15.44,8.46-5.62L210,555l-2.73-9.78,6.51-7.79L203.59,537l-2.94-4.69-10.74,12.13,2.85,2.26Zm-35.44,46.4.05,8.74,6.9-5.36,8.32,2.65-3-8.22L174,594l-8.73.28-5.18-7-2.43,8.39-8.29,2.75Zm17,25.65-11,.35-6.52-8.85L153.06,631l-10.43,3.46,9.1,6.18.07,11,8.68-6.75,5.53,1.76,3.12-3.52-1.89-5.25Zm-29.91-15.24-7.91-2.36-1.36-4.22-9.4,10.62-2.26,6.91,7.78-2.74,6.66,4.87-.2-8.25Zm50.64-36.24L189.71,587l10.4-2.1,7.62,7.38L209,581.71l9.38-5-9.65-4.42-1.83-10.45-7.18,7.81-10.51-1.49Z" transform="translate(0 -253.64)"/><path d="M202.22,508.22s5.2,11.69,26.23,30.31,33.26,22.37,33.26,22.37L277.64,483Z" transform="translate(0 -253.64)" style="fill:#fff"/><path d="M222.58,533.13l45.2-42.7-60,26.46A139.4,139.4,0,0,0,222.58,533.13Z" transform="translate(0 -253.64)"/></g></g></svg>