<svg xmlns="http://www.w3.org/2000/svg" xmlns:xlink="http://www.w3.org/1999/xlink" viewBox="0 0 27.66 66.79"><defs><radialGradient id="a" cx="1.04" cy="32.47" r="1.11" gradientTransform="matrix(0.08, -1, 0.31, 0.02, -9.07, 32.71)" gradientUnits="userSpaceOnUse"><stop offset="0.49" stop-color="#ff982d"/><stop offset="0.82" stop-color="#f6773a"/><stop offset="1" stop-color="#f26a3f"/></radialGradient><radialGradient id="b" cx="25.77" cy="48.79" r="1.54" gradientTransform="matrix(0.08, -1, 0.31, 0.02, 8.66, 73.28)" xlink:href="#a"/><radialGradient id="c" cx="281.51" cy="103.8" r="1.38" gradientTransform="matrix(0.08, -1, 0.31, 0.02, -27.76, 309.06)" xlink:href="#a"/><radialGradient id="d" cx="20.75" cy="58.75" r="5.67" gradientTransform="matrix(0.08, -1, 0.31, 0.02, 0.96, 77.99)" xlink:href="#a"/><radialGradient id="e" cx="20.57" cy="62.38" r="3.49" gradientTransform="matrix(0.08, -1, 0.31, 0.02, -0.33, 81.36)" xlink:href="#a"/><radialGradient id="f" cx="21.09" cy="48.65" r="10.47" gradientTransform="matrix(0.08, -1, 0.31, 0.02, 4.39, 68.48)" xlink:href="#a"/><radialGradient id="g" cx="20.4" cy="48.37" r="11.81" gradientTransform="matrix(0.08, -1, 0.31, 0.02, 3.85, 67.52)" xlink:href="#a"/><linearGradient id="h" x1="16.46" y1="46.81" x2="20.21" y2="46.81" gradientUnits="userSpaceOnUse"><stop offset="0" stop-color="#ff982d"/><stop offset="0.3" stop-color="#fa8833" stop-opacity="0.79"/><stop offset="0.62" stop-color="#f6783a" stop-opacity="0.58"/><stop offset="0.87" stop-color="#f36e3e" stop-opacity="0.45"/><stop offset="1" stop-color="#f26a3f" stop-opacity="0.4"/></linearGradient><linearGradient id="i" x1="16.65" y1="44.56" x2="19.34" y2="44.56" xlink:href="#h"/><linearGradient id="j" x1="4.05" y1="56.21" x2="16.46" y2="56.21" xlink:href="#h"/><linearGradient id="k" x1="16.59" y1="44.69" x2="17.53" y2="44.69" xlink:href="#h"/><linearGradient id="l" x1="14.93" y1="43.47" x2="16.65" y2="43.47" xlink:href="#h"/><linearGradient id="m" x1="7.63" y1="50.79" x2="16.63" y2="50.79" xlink:href="#h"/><linearGradient id="n" x1="12.59" y1="44.37" x2="16.09" y2="44.37" gradientUnits="userSpaceOnUse"><stop offset="0" stop-color="#f26a3f" stop-opacity="0"/><stop offset="1" stop-color="#ff982d"/></linearGradient><linearGradient id="o" x1="9.09" y1="41.62" x2="16.15" y2="41.62" xlink:href="#n"/><linearGradient id="p" x1="7.09" y1="48.09" x2="17.21" y2="48.09" xlink:href="#n"/><linearGradient id="q" x1="1.4" y1="45.94" x2="16.46" y2="45.94" gradientUnits="userSpaceOnUse"><stop offset="0.02" stop-color="#ff982d"/><stop offset="0.04" stop-color="#fe962e" stop-opacity="0.96"/><stop offset="0.12" stop-color="#fb8b32" stop-opacity="0.71"/><stop offset="0.2" stop-color="#f88136" stop-opacity="0.49"/><stop offset="0.29" stop-color="#f67939" stop-opacity="0.32"/><stop offset="0.36" stop-color="#f4723c" stop-opacity="0.18"/><stop offset="0.43" stop-color="#f36e3e" stop-opacity="0.08"/><stop offset="0.5" stop-color="#f26b3f" stop-opacity="0.02"/><stop offset="0.55" stop-color="#f26a3f" stop-opacity="0"/><stop offset="0.59" stop-color="#f36f3d" stop-opacity="0.1"/><stop offset="0.67" stop-color="#f77b38" stop-opacity="0.37"/><stop offset="0.76" stop-color="#fa8534" stop-opacity="0.6"/><stop offset="0.84" stop-color="#fc8d31" stop-opacity="0.77"/><stop offset="0.9" stop-color="#fe932f" stop-opacity="0.9"/><stop offset="0.96" stop-color="#ff972d" stop-opacity="0.97"/><stop offset="1" stop-color="#ff982d"/></linearGradient><linearGradient id="r" x1="4.63" y1="60.58" x2="16.3" y2="60.58" xlink:href="#q"/><radialGradient id="s" cx="17.22" cy="53.78" r="12.54" gradientTransform="matrix(0.08, -1, 0.31, 0.02, -0.75, 69.63)" xlink:href="#a"/><radialGradient id="t" cx="17.53" cy="56.8" r="10.67" gradientTransform="translate(4.46 73.06) rotate(-84.03) scale(1 0.2)" gradientUnits="userSpaceOnUse"><stop offset="0.24" stop-color="#fdf882"/><stop offset="0.57" stop-color="#fed15f"/><stop offset="1" stop-color="#ff982d"/></radialGradient><radialGradient id="u" cx="17.22" cy="61.97" r="5.77" gradientTransform="translate(11.11 78.61) rotate(-83.58) scale(1 0.07)" gradientUnits="userSpaceOnUse"><stop offset="0.27" stop-color="#fff"/><stop offset="0.33" stop-color="#fffef2"/><stop offset="0.65" stop-color="#fefbb6"/><stop offset="0.88" stop-color="#fdf990"/><stop offset="1" stop-color="#fdf882"/></radialGradient></defs><title>spark_2</title><rect width="27.64" height="64.76"/><line x1="20.76" y1="38.33" x2="21.55" y2="41.58" style="fill:#fdae04;stroke:#fdae04;stroke-linecap:round;stroke-miterlimit:10;stroke-width:0.5px"/><path d="M5.46,44.71c-.25.7,1,3.58,1,3.58" style="fill:#fdae04;stroke:#fdae04;stroke-linecap:round;stroke-miterlimit:10;stroke-width:0.5px"/><path d="M1.76,45.91a46.9,46.9,0,0,0,6.16,8.75" style="fill:none;stroke:#f98e3a;stroke-linecap:round;stroke-miterlimit:10;stroke-width:0.5px"/><ellipse cx="0.96" cy="32.5" rx="0.94" ry="0.75" style="fill:url(#a)"/><path d="M26.84,49.91c0,.42-.88-.75-1.4-.75a.77.77,0,1,1,0-1.5C26,47.66,26.84,49.5,26.84,49.91Z" style="fill:url(#b)"/><ellipse cx="26.46" cy="31" rx="1.44" ry="0.56" transform="translate(-13.34 22.22) rotate(-37.07)" style="fill:url(#c)"/><path d="M23.28,51.31c-1.19-.12-5.07,14.88-5.07,14.88" style="fill:none;stroke-linecap:round;stroke-miterlimit:10;stroke-width:0.25px;stroke:url(#d)"/><path d="M23.92,59c-.75,1.16-6.71,6.77-6.71,6.77" style="fill:none;stroke-linecap:round;stroke-miterlimit:10;stroke-width:0.25px;stroke:url(#e)"/><path d="M23.78,34.25c-1.63,9.69-5.38,28.81-5.38,28.81" style="fill:none;stroke-linecap:round;stroke-miterlimit:10;stroke-width:0.25px;stroke:url(#f)"/><path d="M22.84,32C21.21,41.69,18,64.75,18,64.75" style="fill:none;stroke-linecap:round;stroke-miterlimit:10;stroke-width:0.25px;stroke:url(#g)"/><path d="M20.09,28.75c-1.63,9.69-3.5,36.12-3.5,36.12" style="fill:none;stroke-linecap:round;stroke-miterlimit:10;stroke-width:0.25px;stroke:url(#h)"/><path d="M19.21,23.62c-.87,10-2.43,41.88-2.43,41.88" style="fill:none;stroke-linecap:round;stroke-miterlimit:10;stroke-width:0.25px;stroke:url(#i)"/><path d="M4.17,46.33A177.36,177.36,0,0,1,16.34,66.08" style="fill:none;stroke-linecap:round;stroke-miterlimit:10;stroke-width:0.25px;stroke:url(#j)"/><path d="M17.4,23.81c-.31,10.63-.69,41.75-.69,41.75" style="fill:none;stroke-linecap:round;stroke-miterlimit:10;stroke-width:0.25px;stroke:url(#k)"/><path d="M15.09,21c-.31,10.62,1.44,44.94,1.44,44.94" style="fill:none;stroke-linecap:round;stroke-miterlimit:10;stroke-width:0.25px;stroke:url(#l)"/><path d="M7.76,35.91c4.16,10.25,8.75,29.75,8.75,29.75" style="fill:none;stroke-linecap:round;stroke-miterlimit:10;stroke-width:0.25px;stroke:url(#m)"/><path d="M12.71,22.69C14,33.81,16,66.06,16,66.06" style="fill:none;stroke-linecap:round;stroke-miterlimit:10;stroke-width:0.25px;stroke:url(#n)"/><path d="M9.21,18.44C14,29.56,16,64.81,16,64.81" style="fill:none;stroke-linecap:round;stroke-miterlimit:10;stroke-width:0.25px;stroke:url(#o)"/><path d="M7.21,30.44C12,41.56,17.09,65.75,17.09,65.75" style="fill:none;stroke-linecap:round;stroke-miterlimit:10;stroke-width:0.25px;stroke:url(#p)"/><path d="M1.53,25.56C5.84,40.87,16.34,66.31,16.34,66.31" style="fill:none;stroke-linecap:round;stroke-miterlimit:10;stroke-width:0.25px;stroke:url(#q)"/><path d="M4.76,55.41A101.7,101.7,0,0,1,16.17,65.75" style="fill:none;stroke-linecap:round;stroke-miterlimit:10;stroke-width:0.25px;stroke:url(#r)"/><path d="M17.78,66.44s1.56-6.19,2.18-9.57a28.27,28.27,0,0,0,.69-7.93c-.25-1.69-1.19-6.88-2.37-6.94s-3.57,4.12-3.57,4.12a50.52,50.52,0,0,0-1.5,5.5c-.25,1.25-.06,5.19-.12,6.5s2.54,8.29,2.54,8.29Z" style="fill:url(#s)"/><path d="M17.32,66.19A62.78,62.78,0,0,0,18.92,58c.17-2.08,0-9.29,0-9.29s.19-3.29-.6-3.06-1.71,7.75-1.71,7.75-.34,2.34-.9,2.34-.35.13-1.14.49-.43,1.19-.36,1.92.53,5.46.53,5.46.77,2.58.85,2.76.46.32.46.32S17,67,17.32,66.19Z" style="fill:url(#t)"/><path d="M16.9,66.65c.19-.56,2.11-11.6,1-11.7s-1.33,5.39-1.46,5.95a19.85,19.85,0,0,0-.25,2c0,.47-.09,3.83-.09,3.83Z" style="fill:url(#u)"/></svg>