<svg xmlns="http://www.w3.org/2000/svg" viewBox="0 0 1889.47 4511.19"><title>statue</title><path d="M302.07,0c-1.79,19.59-12.47,26.71-12.47,26.71s5.94,1.78,4.16,11.87-17.22,14.24-17.22,14.24c8.31,7.72,12.47,27.3,12.47,27.3,22-11.27,13.06-49.26,13.06-49.26C308.59,13.06,302.07,0,302.07,0ZM257,67.66c-5-26.11,5.93-22.55,5.93-22.55-.59-19-17.21-31.46-17.21-31.46,6.83,19.59-5,12.76-5,12.76-22.56-7.12-37.1,7.42-37.1,7.42C242.12,32.64,257,67.66,257,67.66Zm5.54,93.53s18.38-12.47,16-36.15c0,0,16.34-14.38,6.08-34.11,0,0-5.53,19.74-19.73,21.32,0,0-4.75,23.68-16.58,25.26,0,0,18.14-18.16.78-48.95,0,0-5.53,33.17-30.79,35.53,0,0,11.05-7.1,4-23.68,0,0-10.26,15.79-27.64,11.84s-50.54,6.31-54.47,37.1c0,0-13.54-4.53-11.06-28.42,0,0-17.52,9.25-12.63,28.42,0,0-12.81-6.51-11-27.63,0,0-29.46,25.87-1.58,52.89,0,0-2.37,28.44,19,37.91,0,0,80.51-20.54,125.53,5.51,0,0,50.52-15,44.19-90C292.49,128,283.83,159.62,262.5,161.19Zm-143.83-59.5s14.24-27.31,28.49-30.07c0,0-.41-10.68-10.3-15.83s-12.65-3.16-12.65-3.16,7.52,6.72,2.38,17.8S114.72,84.28,118.67,101.69Z" style="fill:#fff"/><path d="M753.66,1617.34c-16.82,3-33.44,18-33.44,18l-14-.79s6.4,10.8,22,18.4c17.41,8.5,37.39,11.87,54.6,4.15,0,0-9.5,11.87-30.27,11.87,0,0,17.21,5.94,33.83-.59s32.05-16.62,33.83-24.93c0,0-8.9-27.3-10.09-29.67s-13.26-11.08-42.34-11.68-39,6.34-44.9,11.68c0,0,40.36-5.54,55.19,3.37C778,1617.15,765.36,1615.28,753.66,1617.34ZM1170.1,2777.45,1099.73,2703,1156,2855.86C1178.17,2809.61,1170.1,2777.45,1170.1,2777.45Zm-114.34,203.6c38-25.32,52.22-50.65,52.22-50.65l-20.56-205.75C1081.07,2895.58,1055.76,2981.05,1055.76,2981.05ZM937.05,2160.41S827.85,2248.25,773.24,2310s-173.3,282.51-173.3,282.51C761.37,2442.92,937.05,2160.41,937.05,2160.41ZM625.26,1909.55c1.26-55.46-28.49-69.64-28.49-69.64,17.39,69.64-17.4,264.31-17.4,264.31S622.88,2015.59,625.26,1909.55Zm269.06,241.36s-51.43,3.17-102.88-47.48c-8.38-8.27,12.91,39-1.58,33.24-53.8-21.37-76-175.68-76-175.68s-6.88,61.19,6.35,123.93c11.63,55.14,25.31,88.94,40.34,111.1,0,0-34,15-59.35-123.45,0,0-5.61,176.06-19,218.41-9.49,30.07-20.57,3.56-11.07-166.18,0,0-64.9,215.24-85.47,310.2,0,0,159.86-140.86,180.43-161.43S838.92,2203.93,894.32,2150.91ZM671.16,1956.24c16.62,35.61-7.12,109.21-7.12,109.21,35.61-57,33.23-118.71,33.23-118.71-21.36-47.48-59.35-66.47-59.35-66.47,21.37,121.08-40.36,341.86-40.36,341.86C656.92,2082.06,671.16,1956.24,671.16,1956.24ZM464.89,2806.3c-92.86,139.93-81.53,256.24-81.53,256.24,71.76-308.61,297.3-360.84,395.43-474C923.16,2422,1028.6,2193.65,1028.6,2193.65s-209.06,295.57-309.81,382C647.44,2636.9,534.24,2701.77,464.89,2806.3ZM538,2957.17S222.46,3456.65,348.29,3649C348.29,3649,270.34,3499.48,538,2957.17Zm-254.63,150.5c22.16,38,82.31,15.81,82.31,15.81s-112.71-22.29,58.56-421C424.26,2702.49,226.41,2984.21,283.39,3107.67Zm775.53-932.23s-202.58,436.83-240.57,528.63c0,0,153.33-297.23,153.33-233.92S837.35,3071.28,636.35,3421c-86.21,150-135,315.48-144,395.69-37.62,334.53-217.59,694.46-217.59,694.46,139.14-215.17,408.66-888.29,462.91-1083,0,0-43.71,251.76-90.21,368C647.42,3796.15,875.33,3321.33,1058.92,2175.44Zm-215.25,364S359.36,3368.83,368.86,3799.32Zm159.06-394.09c-10.17,14.17-53.81,95.15-53.81,95.15s62.38-79.36,78.35-104.46C1037.65,2119.75,1017.47,2124.8,1002.73,2145.38Zm-16.42-21.18c-28.23,17.48-54,65.88-54,65.88s49.86-54,81.91-68.25C1026,2116.59,998.78,2116.49,986.31,2124.2ZM1361.21,2818c42.35-35.61,44.33-77.56,49.08-118.71s47.87-90.21,47.87-90.21-40.36,34.42-66.47,19c-21-12.44-28.88-112.38-28.88-112.38s-9.11,91,6.32,202.6C1377.52,2778.89,1361.21,2818,1361.21,2818Zm528.26-225.38-31.07-19.36-33.05,33.3,28.26,16.72Zm-468.11,12.9c13.06-10.69,42.74-23.74,42.74-23.74-8.31-10.69-49.86-40.36-64.1-5.94S1408.31,2616.23,1421.36,2605.55Zm345.52,141.79-15.52,24s27.71,12.67,34,29.29l14.25-23.74-.32-.42,23.26-1.17s-37.19-22.14-37.19-32.44c0,0-44.31-19-33.24-43.53,0,0-15.81,15-2.37,30.87A165.56,165.56,0,0,0,1766.88,2747.34ZM551.66,1863.65s-28.49,110.78-77.55,117.12-16.62-125-16.62-125c-82.29,188.34-19,213.67-19,213.67-25.32,87-112.38,223.16-112.38,223.16C580.94,2030.62,551.66,1863.65,551.66,1863.65Zm566.41,221c-15.43-8.31-73.59-21.36-73.59-21.36s50.45,43.92,83.09,49.85C1127.57,2113.12,1133.51,2092.94,1118.07,2084.63Zm156.1,602.82L1203,2378.82s4.75,137.7-45.11,204.17C1157.84,2583,1220.75,2558.07,1274.17,2687.45Zm99.71,387-47.48,64.1,47.48,534.17s-17.9-438.54-6.06-494.37C1375.09,3144,1373.88,3074.43,1373.88,3074.43Zm-2.37-42.74c-16.62-23.74-61.73-66.47-76-128.2s-27.81-242.53-87.84-268.27c-58.17-24.92-95,45.11-95,45.11s58.17-29.68,87.84,23.74c11.87,21.37,113.16,433.66,113.16,433.66l-28.49-199.41s24.54,83.88,64.9,136.11C1350.14,3074.43,1388.13,3055.44,1371.51,3031.69Zm-725.78-1333c1.39,2.26,3,4.89,4.06,7.07,0,0-5.34,24.93,10.69,33.24,15.56,8.07,21.36-1.19,21.36-1.19s-12.16-1.78-15.43-13c-1.78-6.14,2.38-13.06,2.38-13.06l-11.67-17c4.75-2.84,9.48-7.16,14-13.81,3.28-4.79,19.68,40.62,22.55,36.79,14.45-19.23,1.75-64.91,2-86.72l.73.07c7.94-33.24,63.87-64.2,99.71-77.56,30-11.17,38-27.79,40.25-37.17,5.8,10.67,20.88,25.87,72.12,41.13A121.92,121.92,0,0,1,938,1570.1c5.34,4.6,9.92,10.81,9.18,18.75a17.92,17.92,0,0,1-8,11.94,136.45,136.45,0,0,0-28.23-1.06c-29,1.82-50.24,14.64-51.43,17s-1.39,26.71-1.39,26.71l2.08,76c-3.27,5-8.55,11.63-25.23,5.94-9.35-3.19-12.76-8.31-24.93-4.16-14.59,5-9.79,18.4-9.79,18.4s25.22,4.75,30,6.83c1.75.76,11.41.74,18.18.64a39.21,39.21,0,0,1,.82,7.07,7.4,7.4,0,0,1-5.05,7.13l-11.57-3.86s-16,3.56-21.37,7.71-10.68,11.88-19,13.66c0,0,5.93,6.52,15.43,2.37s27.69-7.72,37.19-5.34c0,0,8.12-4.75,21.77,2.37,0,0,5.34,10.69-9.49,11.28s-26.32-2.38-39.38,1.19c-11.41,3.11-13.3.79-13.6.14.26.82,4.62,13.51,20.13,13.51,16,0,33.23-1.19,46.88,0s19-7.13,22-20.18c0,0,8.31-5.94,10.68-11.87,0,0-11.27-2.38-15.43-4.75-3.34-1.91-12-5.7-15.24-7.12-1.82-2.75-5.58-8.74-6.71-13.06a5.82,5.82,0,0,1,.48-3.57c6.73-1.64,14.61-3.27,18.71-3,0,0,8.66-16-4.75-24.33-5.17-3.23,17.49-23,12.17-47.75,16.26,5.87,32.73.26,32.73.26-20.77,0-30.27-11.87-30.27-11.87,14.32,6.42,30.48,4.93,45.54-.56,3.13.11,29.49,2.1,16.8,36.91-.24.66-.29,1.14-.48,1.76-5.3,11.06-9.24,20.56-9.24,24.41,0,108.42-57.75,103.69-59.74,119.1-2.37,18.4-38,19.39-38,19.39H827.46s-28.69-.4-29-17.41c0,0-11.57-5-10.39,20.57,0,0-32.18,2.35-65.73-51.35-9.05-14.49-7.27,60.26,62.76,129.7,39.77,39.43,48.8,88.33,34.95,101.53-11.91,10.25-41.1-12-60.17-33.87-22.26-25.52-38.87-62.91-38.87-62.91s15.41,56.86,34.46,75l-16.66-13.32s16.62,58.17,74.19,93.78c72.52,44.86,102.68,14.24,102.68,14.24s-115-22.26-152.33-79.53c0,0,64.1,52.23,103.66,47.48a50.92,50.92,0,0,1,9.49-43.92c16.62-21.36,76-125.82,79.53-172.12,0,0,17.81-35.61,19-49.85,0,0,19-47.48,21.36-77.16,1.47-18.32,2.93-29.82,3.84-36l.11-.06s.26-1.68.63-4.66c.1-.53.17-.88.17-.88l0-.11c.65-5.17,1.56-13.51,2.21-23.61l8.52,7.11-3.57,14.64s15.64,8.31,11.48,22.55-8.51,21-8.51,21,20.38,5.54,25.91-18.59c3.73-16.3-3.15-24.14-3.15-24.14l.78-6.34a20.25,20.25,0,0,0,10,5.75c.29,5.24,1.2,25-1.69,38.17,0,0,28.5,53,32.46,74.4,0,0-14.53-72.51-23.39-112.72a35.4,35.4,0,0,0,19-17.07s-21.37,1.78-30.27-8.31c-8.39-9.49-33.28-39.24-39.16-52.62a.68.68,0,0,0,0-.2c0-.32-.18-.61-.24-.91,29.7,2.51,31.7-35.29,31.7-35.29-4.71,11.78-14.39,15.35-23,16,7.08-2.22,10.14-8.39,11.68-17.78,6.18-37.82-27.89-65.58-27.89-65.58,10.68,22.26-2.67,28.49-2.67,28.49-1.73-20.7-18.05-20-18.05-20,10.33,27.43-16.36,30.38-16.8,30.43a133.76,133.76,0,0,0-36.65-14.05c-55.81-13-82.51-35.8-82.51-35.8h-.1c-1.52-13.89-11.18-27.31-11.18-27.31s2.11,33.26-35.61,43.32c-17.81,4.75-70,30-88.44,58.36-20.57,31.66-58.55,18.21-58.55,18.21,2.78,14,13.45,22.54,24.5,27.76-.11,0-.28.08-.37.13a52.74,52.74,0,0,0-24.93,20.78c-9.5,15.43-22,48.66-35,35.61C607.65,1679.66,625.31,1701.05,645.73,1698.7Zm295.88-74.85a56.05,56.05,0,0,0-17-6.51c-11.69-2.06-24.34-.19-24.34-.19,13.36-6.81,30.4-4.5,41.61-1.72C942.75,1618.84,943.13,1621.88,941.61,1623.85Zm-325.85-26.5c-4,1-3.41,7.6,4.86,13.91,0-.55-.11-1.09-.11-1.65,0-3.23.4-6.4.63-9.59C619.47,1598.22,617.56,1596.91,615.76,1597.35Zm415.46,245.72c.68-.92,2.11-12.25,3.59-27l20.15,57.83,26.91-22.94s-7.12,0-17.42-13.46-24.72-88.43-24.72-88.43l0,.13c0-.42,0-.94,0-1.32,0,0-6.86,29.08-26.41,30.27-14.54.89-17.81-5.64-17.81-5.64l-14.15,46.79,4.71,224.37-6.29-1.21s10.67,16.92,30,39.5c-17.47-9.86-37-21.11-39.52-23.67-4.75-4.75-1.6-194.67-1.6-194.67-14.24,104.46-83.87,172.51-88.62,197.84s74.38,26.9,96.54,26.9c12.58,0,30.57,3,43.94,5.68,26.84,29.08,65.92,63.62,114.35,84.53,0,0,58.55-14.24,125,28.49,0,0-26.71-44.9-158.27-85.46l20.57,28.48s-39.77-10.47-77.55-63.3c-14.39-20.1-21.37-32.16-23.18-35.41l81.74,13.25s-68.07-172.52-68.07-204.17l6.34,169.35S1013,1830.4,1014.6,1803.5C1014.6,1803.5,1029.44,1845.44,1031.22,1843.07ZM1002,3457.45c-.32.56,12.58,203.28,12.29,203.83l11.19-546.94-3.26,16.79c.31-17.46,13.33-81.22,163.36-200.73,0,0,29.29-110,10.3-197.84,0,0,19,158.28-83.1,234.25-101.34,75.42-151.09,139.87-91.4,168.68,0,0-87.09,373.79-72.41,651.16,16.62,168.56,13.32,198.63,13.32,198.63M110.08,569l14.24-.8L121.17,531s-30.86-15-13.46-41.15L97.43,469.28l-23-4s7.92,25.72,7.92,34.42c0,5.76,15,23,15,36.8C97.43,544.45,110.08,569,110.08,569Zm85.67,103.47c-24.93-10.69-33.83-11.28-33.83-11.28s-9.5,3.56-24.93,4.75-40.36-3.56-23.74,22.55a133.93,133.93,0,0,0,16.62-1.19l7.12-3,24.34-4.75s44,16.72,63.23,8.59a17.42,17.42,0,0,1-8.83,3.47c0,10.76-3,150.56-1,150.56l4.45.3c8.44,0,14.29,1.56,18.44,3.44,4.43,3.29,9.44,9.65-.93,18.22,0,0-76.56-10.09-68.84,4.75,0,0,59.07-2.2,65.28,7.12,9.5,14.25-7.71,16-7.71,16s-87.25-13.06-78.94,6.53c0,0,49.86-4.75,62.91,3.56s9.59,36.42,5.94,48.67c-6.53,22-21.37,17.8-21.37,17.8s-15.43-3.56-19,11.87c0,0,39.76-7.12,39.76,7.72,0,0,7.72,36.2-35,26.71,0,0,4.74,19,21.36,19s19-16.62,19-16.62,12.46-.59,16.61-32.64c0,0,13.06-11.87,13.65-77.16,0,0,16-14.24,7.13-27.3l-8.91-9.5s11.28-6.53,4.16-20.18a24.89,24.89,0,0,0-5.81-7.37v-186a42.48,42.48,0,0,0,6.4,5.2l1.58,33.23,3.17,147.2.69-.11c-.08,3.79.16,6.57.89,7.23,17.41,15.83-10.39,14.6,2.37,25.33,19.79,16.61,3.25,20.08,0,29.27,0,0-5,46.89-5.53,53.81C254.9,978.91,243.83,990,243.83,990s-3.17,30.06-15.82,34.81c0,0-2.77,16.35-26.73,14.8-10.85-.7-7.85,15.6,7.73,29.38,20.11,17.79,30.75-2.67,38.66.78,30.15,13.14,53.23,66.72,59.46,91.16,19,74.39,50.65,259.56,11.09,288,0,0,70.94,242.48-5,392,0,0,11.65-14.64,27.79-37.12,23-27.86,88.06-104.7,95.52-93.13,14.11,21.9-75.16,142.21-100.88,179.79,0,0,48.87-26.31,80.92-64.29,26.24-31.1-4.36,91.17-195.4,176.26,0,0,158.06-13.89,257-199.72,2.77-5.39,5.33-10.71,7.74-15.93,4.82-2.44,10.4,4.14,7.19,54.22-3.56,55.8-31.82,105-17.8,98.53,89-40.95,64.69-166.19,64.69-166.19-14.84,50.45-23.14,24.93-24.33,0-.63-13.26-4.6-30.75-8.2-44.34,14.32-50.07,12.35-82.67,12.35-82.67s-48.07,1.78-43.33-43.92c3.14-30.07-12.46-67.86-44.3-91.8,0,0,31.38,41.35.7,124.34,2.23-8.72,3.84-17.1,4-24.63,1.15-41.41-34.83-83.88-41.15-155.1s11.07-47.48-11.08-170.93-76-234.25-76-372c0-19.45-18.73-67.72-32.06-92.38.11-.9.35-1.62.4-2.58,1.58-23.74,20.16-8.42,7.13-59-9.5-36.8,18.23-48.92,18.23-48.92s-28.53-36.16-31.68-48.82c-2.73-10.86-30.74-36.73-42-44.28l-.2-.21c-.06,0-.06-.18-.11-.22a2.78,2.78,0,0,1-.34-.26c-2.56-2.77-4.92-5.06-6.73-6.66-6.22-7.67-13.12-20.21-13.12-33.44,0-10.5,6.22-16.86,11.38-20.39,3.22-2,7.06-3.63,10.79-3,8.7,1.59,21.37,23.74,26.11,28.49l.39-48.67s33.63-17,13.06-44.71c0,0-10.29,28.48-34.81,26.91,0,0-2.14-.32-6-.71-39.15-22.44-96.09-12.56-108.8-5.63-13.05,7.12,4.59,16.07,4.59,16.07s13.55-5.12,22.59-5.73c19.43-1.31,23.27,12.54,23.27,12.54l1.78,46,16.62,3.56c9.83,14.83-6.27,23.85-10.74,26a39.25,39.25,0,0,1-20.12-.27,150.42,150.42,0,0,0-29.29-4.75l-4.75-9.5s-3.15,7.9-9.49,11.07-30.48,2.38-20.18,26.12l37.59,1.19V617.26s27.1,4.2,45.39-1.53l.52,16.57L222.85,656s.07-.24.09-.28c4.25,1.42,17.58,6.63,9.5,22.29C229.54,679,217.34,681.71,195.75,672.46Zm-5.34,64.69a66.47,66.47,0,0,0,7.71-2.23l.6,78.2A21.8,21.8,0,0,1,210,825.58l.57-99.26a16.89,16.89,0,0,0,2.25-7.42c-.54,2.18-3.75,8.75-23.6,8.75a70.89,70.89,0,0,1-40.36-13l-14.24,9.49c-3.56,2.38-27.3,11.87-22.56,20.18s11.87,8.31,11.87,8.31-7.12,33.24,16.62,48.67l1.19-62.91S173.79,740.71,190.41,737.15Zm18.4-237.29s7.75-6.18,9.2-25c0,0-6.92-4.26-13.3-1.93S206.43,490.84,208.81,499.86Zm-24.93-117c97.39,0,176.37,13.3,176.37,37.25,0,3.56-2.21,7-5.49,10.29,8.38-5.18,13-10.83,13-16.74,0-25-82.33-45.25-183.88-45.25S0,388.63,0,413.62c0,5.91,4.62,11.56,13,16.74-3.28-3.31-5.49-6.73-5.49-10.29C7.51,396.12,86.49,382.82,183.88,382.82Zm69.79,98.87s-5.78-7-12.16-4.65,2,20-7.83,27C233.68,504,252.23,500.55,253.67,481.69ZM208.21,1975.23C163.11,1949.12,236.7,1809,236.7,1809s9.5,30.87,16.62,59.36-9.49,54.6-9.49,54.6l52.23-61.73s-42.74-40.36-33.24-104.46c-2.38-33.23-9.5-144.81-9.5-144.81-35.61,33.23-116.33,178-106.83,299.13S208.21,1975.23,208.21,1975.23ZM302,308.63v31.65s3.95,18.59-24.93,21.37c0,0,55.79,9.89,74.79,21.76l-1.19-74.78s-102.09-52.23-260-23.74C90.7,284.89,246.2,281.33,302,308.63ZM183.88,457c24.48,0,46.57,4.58,63.41,11.91,60.32-4.64,102.78-15.66,102.78-28.53,0-17-74.4-30.86-166.19-30.86S17.7,423.35,17.7,440.39c0,12.87,42.45,23.89,102.77,28.53C137.31,461.59,159.4,457,183.88,457Zm874.25,2261.31c68.85-161.44,97.34-237.41,106.83-320.5s-42.73-194.68-42.73-194.68C1131.73,2388.32,1058.13,2718.32,1058.13,2718.32Zm749.41,68.84s1.59,16.62-11.07,23l11.87,8.7s9.68,25.56-19.09,34.73a8.58,8.58,0,0,0,.89-1.5c4.36-13.05-9.94-29.58-15-30.06-9.9-.94-52.23-38.39-52.23-38.39s-13.41-.46-26.5-2c-17-2-19-16.22-19-16.22-9.49,13.84,5.14,20.58,5.14,20.58l38,15.43s23.44,16.89,33.23,26.11c12.25,11.52,13,25.15,11.63,34.15-2.76,11.22-11.92,37.84-36.17,34.56-10.83-17.43,5.55-36.26,5.55-36.26l-32.44-31.66c-39.58,2-49.46-29.28-49.46-29.28-9.89,32.45,41.54,39.58,41.54,39.58l10.3,12.66-9.5,15.83a110.35,110.35,0,0,1,30.62,47.24c-1.06,6.6-3.9,12.95-10.85,15.27-16.62,5.54-24.52-12.66-24.52-12.66s5.53,26.11,6.33,33.24,6.32,44.31,38,34.81,93.39-140.07,93.39-140.07,3.85-26.21,16.62-32.44C1844.75,2812.49,1821,2807.54,1807.54,2787.16Zm-108.41,199.43s-10.13-28.81-14.93-38.53l-8.4-51.3-11.49-22.54s-32.84-11.88-26.91-30.08c0,0-14.22,17.81,14.66,36.8,18.66,12.27,12.13,37.94,10.6,43L1510,3202.63l139.27-220.2,12.8,25.1-10.42,18.23s26.11-2.38,45.11-7.12,41.54-26.12,41.54-26.12S1708.63,3005.58,1699.13,2986.59ZM378.35,1976s-63.32,95-117.11,85.47S179.3,2095.66,201,2138c15.54,30.34,78,69.53,90.71,69.53ZM1422.94,3204.21,1446.68,3429s23.35-37.59,37.6-37.59,28.28,15.22,64.69-14.84c0,0-113.36-15.62-75.38-113.75,0,0-12.67,61.7,42.74,88.62,0,0-33.24-64.1-2.38-51.43,0,0-.8,2.37,18.2,2.37,19.79,0,23.74-71.22,23.74-71.22s4.75,79.12-9.5,110.78c4.75-4.75,37.21-40.36,43.53-121.86,0,0,11.87-58.57,10.29,25.32,0,0,26.1-121.08,34.82-189.92l-106,197.84Zm368.78-491.43L1817,2731l53.82-82.31-31.66-22.15ZM193.17,231.47v32l49.47,3.56v-36.8S183,204.17,120.37,229.1C120.37,229.1,167.86,227.91,193.17,231.47ZM418.24,2385.28c-8.79,206.1-78.24,346.87-78.24,346.87,18.27-28.57,96.18-151.84,96.18-151.84-10.31-143.09,75.12-436.52,75.12-436.52-131.36,270.64-242.16,313.38-242.16,313.38C319.78,2571.12,418.24,2385.28,418.24,2385.28ZM408.43,2272c161.83-163.81,142.84-313.38,142.84-313.38-26.12,105-82.5,169.75-82.5,169.75C467.58,2182.37,408.43,2272,408.43,2272Zm63.31,273,65-69.12s-27-123.18,34.7-327.35C571.45,2148.54,478.86,2331.34,471.74,2545Zm140.87-714.6s16.41-11.87,25.31-41.15c0,0-3,30.47-14.24,53.81,0,0,18.34,16.31,31.88,30.23,3.19,3.29,20.74-40,29.05-76.91,1-4.36-3.36,70.23-12.86,89.81L706,1927s3.16-98.12,1.6-112.37-11.09-38-11.09-38-19,7.91-31.65-1.59-28.48-22.15-30.08-61.72c0,0-27.69,29.28-60.13,77.55C574.62,1790.84,604.67,1814.59,612.61,1830.41Zm413.79-60.91c-11.89,2-18.46-16.4-24.62-13.54s-5.34,11.9-5.34,11.9C1010.8,1780.17,1026.4,1769.5,1026.4,1769.5Zm-358.74,0s15.59,10.67,30-1.64c0,0,.83-9-5.33-11.9S679.56,1771.55,667.66,1769.5Zm-19,701.91,62.13-108s-183.27,173.11-283,460.23C427.69,2823.62,559,2554.9,648.61,2471.41Zm503.29-281.33s92.41,42.66,125.83,128.2c40.36,103.28,70,294.39,70,294.39s-20.18-282.52-64.1-350.18C1241.32,2197.27,1151.9,2190.08,1151.9,2190.08ZM702,1371,521.91,1237.49l152.22,151.34ZM1445.1,2661.34s-23.74,147.19-78.34,192.3L1418.19,3190s6.34-161.44,6.34-221.58C1424.53,2926.32,1445.1,2661.34,1445.1,2661.34ZM617.74,1447l-209.31,3.56,197.44,22.55ZM630,1463.22c-11.07,19.78-13.44-5.54-13.44-5.54-8.63,25.59-14.53,52.17-16.64,73.25l-120.26,16.18,6.92,7.91,112.65-2.92a65.8,65.8,0,0,0,.71,6.88c2.87,16,11.48,13.84,11.48,13.84.54-3.08,1.22-6.26,1.87-9.41,5.12,4.37,9.22,8,12.34,10.85,1.22-4.25,2.56-8.47,4.19-12.59-4-4.59-9.35-10.19-13.26-12.59h0c.76-3,1.46-6.09,2.33-9.17,5.42,5.54,10.58,11.19,14,15.1a143.36,143.36,0,0,1,7.94-14.85c-3.2-4.61-10.06-14.18-15.77-19.42q1.73-4.86,3.67-9.69c7,9.1,14.41,19.65,16.31,22.35,2.57-3.76,5.43-7.4,8.4-11l.79-1.22s-8.9-17.93-17.54-27.93c1.11-2.22,2.37-4.39,3.56-6.58,3.76,3.68,9.09,9.76,19.23,28.72,3.68-4,7.53-7.84,11.61-11.55-.22-.62-9.84-26.11-18-37.82,1.47-2.07,2.88-4.17,4.42-6.19a48.48,48.48,0,0,1,6.53,7.93c8.9,14,13.65,30.27,13.65,30.27l1.3-.89q7-5.64,14.59-10.75c-.55-3.25-6.23-32.73-18.78-45.88,2.15-2.12,4.19-4.32,6.47-6.35,2,3,4.1,5.69,5.32,7.68,7.66,12.4,13.22,36.29,14.08,40a221.87,221.87,0,0,1,23.09-12.24c-.17-3.16-2.82-43.23-14.17-55.77,3-1.75,6-3.46,9.22-5.08a56.24,56.24,0,0,0,2.59,8.15c4.33,10.69,11.1,48.67,11.1,48.67l1.07-.31a246.71,246.71,0,0,1,30.38-10c-.66-11.35-3-46.92-7.12-57.63a23.68,23.68,0,0,0-1.67-3.4c3-.86,6.23-1.44,9.31-2.19.69,3.18,1.6,6.43,2.25,9.54,1.91,9.11,3.8,40.09,4.47,51.84a265,265,0,0,1,35.09-5.57c.29-14.51.37-45.5-3.19-62.36,2.65-.24,5.43-.35,8.14-.52v59.94a18.34,18.34,0,0,0,.5,2.45c6.47-.47,13-.77,19.66-.77,6.46,0,12.82.3,19.12.75a19.72,19.72,0,0,0,.49-2.43v-60.28c3,.15,6,.33,9,.56-3.6,16.78-3.52,48.06-3.24,62.66a264,264,0,0,1,35.08,5.57c.67-11.75,2.56-42.73,4.49-51.84.74-3.54,1.8-7.23,2.51-10.82,3.32.72,6.6,1.5,9.79,2.33a24.43,24.43,0,0,0-2.41,4.54c-4.1,10.71-6.48,46.28-7.14,57.63a244.5,244.5,0,0,1,30.38,10l1.09.31s6.77-38,11.08-48.67a51.41,51.41,0,0,0,3.11-11c3.77,1.75,7.44,3.58,11,5.5l-.5.35c-12.94,9.9-15.73,54.52-15.91,57.84a221.54,221.54,0,0,1,23.07,12.24c.85-3.72,6.42-27.61,14.1-40,1.69-2.73,5-6.71,7.4-11.22,2.65,2.22,5.27,4.44,7.73,6.76-.44.33-.85.52-1.3.9C976.2,1450.1,970,1483,969.42,1486.4q7.62,5.11,14.61,10.75l1.3.89s4.75-16.32,13.65-30.27c3.15-4.93,6.86-8.15,9.81-11.52,1.54,1.94,3,3.93,4.38,5.91-8.61,8.18-21,41-21.27,41.69,4.09,3.71,7.93,7.56,11.61,11.55,13.65-25.53,18.6-27.79,22.73-32.21,1.21,2.26,2.34,4.51,3.44,6.77-9.54,8.37-20.91,31.23-20.91,31.23l.8,1.22c2.95,3.58,5.81,7.22,8.4,11l.32-.44c6.45,12.91,21.88,46.55,20,71.14-2.3,30.91,19,18.19,19,18.19,4-11.73,9.9-33.77,10.93-62.73L1308.91,1542,1070,1521.78l-1.93,16.79a255.53,255.53,0,0,0-7.57-50.62,286.76,286.76,0,0,0-18-40.47c6.23,7.89,9.7,13.17,9.7,13.17s207.72-74,216.36-76.56c-9.81,2.43-190.19,39.21-229.84,47.76-6-8.91-24.61-33.39-59.22-54L1119,1234.52,948.23,1365.19s4.9,14-21.47,3.07C712.91,1307.22,630,1463.22,630,1463.22Zm194.68-311.4-9.89,184.78,39.17.6ZM616.17,1589.44a60.21,60.21,0,0,1,5.39,4.08c.47-3.65,1.28-7.21,2.06-10.78-3.85-4.39-8.94-9.49-12.2-9.92C605.63,1572.07,605.48,1582.32,616.17,1589.44Zm577.28,709.45,159.86,493.81-7.92-164.6C1320.07,2632.85,1193.45,2298.89,1193.45,2298.89Z" style="fill:#fff"/></svg>