<svg xmlns="http://www.w3.org/2000/svg" viewBox="0 0 299 299"><title>sunscreen</title><rect width="299" height="299"/><path d="M154.82,99.15a19.07,19.07,0,1,0,11.43,24.44A19.07,19.07,0,0,0,154.82,99.15Z" style="fill:#fff"/><path d="M211.27,32.27H86.17a6,6,0,0,0-6.1,7.2L103,199.57c5.84,3.82,21.45,8.79,45.77,8.79s39.92-5,45.76-8.79l22.88-160.1A6,6,0,0,0,211.27,32.27ZM183.46,136,167.3,138l-4.83,15.56-13.71-8.79-13.7,8.82-4.86-15.55L114,136l6.28-15-11.07-12,14.48-7.48-.79-16.28,15.89,3.57,9.86-13,9.88,12.95,15.89-3.6-.75,16.28L188.19,109l-11,12Z" style="fill:#fff"/><path d="M184.08,249.63c-4.17,2.53-16.69,6.21-35.35,6.21s-31.19-3.68-35.36-6.21l0-33.94A67.28,67.28,0,0,1,102,211.74l0,40.76c.37,8.13,21.13,14.7,46.72,14.7s46.34-6.57,46.71-14.7l0-40.76a67.28,67.28,0,0,1-11.36,3.95Z" style="fill:#fff"/></svg>