<svg xmlns="http://www.w3.org/2000/svg" viewBox="0 0 299 299"><title>treefire_1</title><rect width="299" height="299"/><path d="M129.09,184.36a76.2,76.2,0,0,0,65.67-52.79c7.18-22.7,2.71-46.7-12.16-68.95l27.5-23.09,18.19,64.05-9.52-2.93,23.3,113-16.51-5.06L238.72,273l-68.48-21-4.3,13v16.59H117.51V262.73h37.27l-34.9-12.43,4.06-12.51-68.49-21,37.74-36.86C101.84,184.22,118.7,185.29,129.09,184.36Z" style="fill:#fff"/><path d="M128,172.52c49.32-4.42,90.67-69.77,22.08-128.33,6.37,19.05-3.71,37.57-3.71,37.57C130.3,34.1,97.6,18,97.6,18c19,55.39-2.5,85.7-2.5,85.7S79,85.32,85.29,63.39c0,0-31.11,21.67-26.93,54.81C65.35,173.65,116.62,173.54,128,172.52Zm-15.31-13.73a1,1,0,0,1,.81-1c31.25-5.37,54.45-32.66,54-63.46a1,1,0,0,1,.78-1h.16a1,1,0,0,1,.93.6c5.9,14.77,4.71,30-3.07,42.9-9.35,15.54-26.41,23.9-42.94,23.9a47.5,47.5,0,0,1-9.84-1A1,1,0,0,1,112.67,158.79Z" style="fill:#fff"/></svg>