<svg xmlns="http://www.w3.org/2000/svg" xmlns:xlink="http://www.w3.org/1999/xlink" viewBox="0 0 433.55 542.41"><defs><clipPath id="a" transform="translate(-63.71 -12.85)"><circle cx="277.63" cy="277.63" r="277.63" style="fill:none"/></clipPath></defs><title>uncle-sam</title><g style="clip-path:url(#a)"><path d="M63.71,555.16A34.77,34.77,0,0,0,65.2,552c1-3.51,2.6-6.62,3.82-9.88,3.26-8.74,7-17.64,10.25-26.47,1.62-4.35,3.59-8.5,5.5-12.77,2.77-6.18,5.85-12.54,8.67-18.92a43.92,43.92,0,0,1,3.07-6c2.5-3.83,4.79-7.55,7.18-11.19a25,25,0,0,1,4.19-4.94l4.76-4.38c3.16-2.91,6.33-5.89,9.69-8.67,6.67-5.5,13.63-10.73,20.5-16.21,1.72-1.37,3.39-2.7,5.22-3.92a21.91,21.91,0,0,0,2.7-1.86,9,9,0,0,1,1.31-1c1.39-.87,2.66-1.84,4.19-2.71a26,26,0,0,0,2.43-2.14c.92-.68,2.07-.9,3-1.59a58.64,58.64,0,0,1,5.22-3.91,15.25,15.25,0,0,0,2.79-1.77,20.65,20.65,0,0,0,2.15-2.42c1.93-2.53,4.83-4.44,6.43-7.37a6.17,6.17,0,0,0,.84-3.54,17.78,17.78,0,0,0-.56-4,62.13,62.13,0,0,0-2.61-6.53c-.42-1-1-2.08-1.49-3.07s-.91-2.12-1.4-3.17a24.85,24.85,0,0,1-2.42-6.81,46.35,46.35,0,0,1-1-8.1,17.14,17.14,0,0,0-.75-3.73c-.26-1.28-.54-2.55-.74-3.82-.23-1.42-.32-2.69-.65-3.92s-.7-2.33-1.12-3.45c-.81-2.11-2.14-4-3.08-6.15-.43-1-1.2-1.84-1.67-2.89a22.9,22.9,0,0,0-1.78-2.79c-.6-1-.87-2.11-1.39-3.17s-1.16-2-1.59-3c-.93-2.21-1.58-4.48-2.51-6.62-1-2.29-.75-5.14-.75-8.48A21.45,21.45,0,0,1,155,313a40.2,40.2,0,0,0,2.05-4.85,5,5,0,0,1,.75-1.49,14.14,14.14,0,0,0,1.3-3.26c.42-1.21.46-2.45.84-3.73a14.9,14.9,0,0,0,.37-4.29,34.69,34.69,0,0,0,0-4.56,12.8,12.8,0,0,0-.56-1.77,19.39,19.39,0,0,0-2-4.76c-.28-.48-.65-.9-.93-1.39a10,10,0,0,0-.84-1.4,26.13,26.13,0,0,0-2.33-2.24,7.92,7.92,0,0,0-2.7-1.86,28.09,28.09,0,0,0-3.26-1.31c-1.29-.31-2.49-.53-3.73-.93a25.73,25.73,0,0,0-3.91-.65,36.14,36.14,0,0,0-4-.56,47.7,47.7,0,0,1-18.17-4.75A43.5,43.5,0,0,1,111.8,266c-.87-.61-1.64-1.41-2.52-2.05s-1.87-1.21-2.7-1.87a15.1,15.1,0,0,1-3.82-5.31c-1.51-3.05-2-7.8-1.4-12.21a10.14,10.14,0,0,1,1.21-3.35,14.65,14.65,0,0,1,3.92-5.22c1.78-1.39,3.23-3,5.31-3.82,1.06-.44,2-1.06,3.07-1.49a27.47,27.47,0,0,1,3.55-1c1.25-.32,2.19-1,3.44-1.21a20.17,20.17,0,0,1,4-.56,41.62,41.62,0,0,1,6.8.09c.64.12,1.17.41,1.77.47a14,14,0,0,1,2.15.19,10.94,10.94,0,0,0,1.86.37,30.1,30.1,0,0,1,3.73.84,8.58,8.58,0,0,1,1.86.46c2.6,1,6.73,3.08,7.37-1.12a27.44,27.44,0,0,0,.09-3.72c0-2.57.3-5.28-.09-7.55a19,19,0,0,1-.47-3.36,20.14,20.14,0,0,0-.56-3.26c-.33-2.59,0-5-.37-7.18a33.28,33.28,0,0,0-.47-3.35,18.85,18.85,0,0,1-.74-3.08,44.64,44.64,0,0,0-.93-6.71c-.58-2.07-.77-4.23-1.31-6.33s-.82-4.24-1.21-6.34-1.2-3.87-1.68-6-1.19-4-1.58-6.05a28.11,28.11,0,0,0-.75-3.08c-.31-1-.47-2.07-.74-3.07s-.67-1.91-.94-2.89-.3-2.13-.56-3.17c-.12-.51-.37-1-.46-1.49s-.09-1.09-.19-1.68c-.17-1-.73-1.92-.93-2.89-.25-1.17-.23-2.36-.37-3.45a14.63,14.63,0,0,0-.75-3.07,20,20,0,0,0-1.68-4.1,34,34,0,0,1-1.67-4,23.83,23.83,0,0,1-1.12-2.61c-.17-.57-.17-1.08-.37-1.59s-.46-.76-.66-1.21c-.81-1.87-.83-4.07-1.86-5.77-.47-.79-.9-1.61-1.4-2.43a12.91,12.91,0,0,1-1-2.79c-.3-.89-1-1.7-1.31-2.52s-.61-2-.93-2.89a26.55,26.55,0,0,0-2.61-4.94c-.47-.8-.77-1.76-1.3-2.51a38.91,38.91,0,0,1-3.08-4.57,21.58,21.58,0,0,0-1.21-2.61c-.5-.72-1-1.46-1.59-2.24a8.5,8.5,0,0,1-1.11-2.7,25.51,25.51,0,0,0-1.22-2.52c-.74-1.66-1.68-3.27-2.51-5.12s-2.15-3-2.33-5.31a9.37,9.37,0,0,1,.46-3.36,22.54,22.54,0,0,1,1.4-2.42c.88-1.89,1.3-3.75,2.42-5.13.56-.68,1.44-1.07,2.06-1.77,1.13-1.31,2.14-3,3.26-4.38a15,15,0,0,1,2-1.77c1.33-1.17,2.6-2.51,4-3.63a18.56,18.56,0,0,0,2-1.78A13.07,13.07,0,0,1,127,53a92.8,92.8,0,0,0,8.29-7c1.32-1.16,3.11-1.92,4.57-3.07.74-.58,1.36-1.2,2.05-1.77a17.76,17.76,0,0,1,2.33-1.4,19.55,19.55,0,0,0,2.14-1.68,17.15,17.15,0,0,1,2.33-1.49c1.63-.88,3-2.11,4.57-3.07s3.5-1.45,5.22-2.43,3.58-1.28,5.31-2.23c.78-.44,1.55-1,2.42-1.4s1.86-.63,2.8-1c3.65-1.54,7.51-2.4,11.56-3.73a28.49,28.49,0,0,1,2.79-1c.55-.11,1.13-.1,1.68-.19s1-.27,1.49-.37c2.2-.41,4.29-.45,6.15-1.49s3.93-1.15,6.06-1.49,4.12-1.1,6.52-.93a12.87,12.87,0,0,0,3.36-.28,22.84,22.84,0,0,1,3.45-.28c2.17-.1,4.4-.8,6.71-.93s4.63-.44,6.89-.75c1.21-.17,2.37,0,3.55-.28a21,21,0,0,1,6.52-.93,10.76,10.76,0,0,0,3.07-.47,34.73,34.73,0,0,1,3.73-.09c1.15-.07,2.31-.31,3.45-.37s2.29.33,3.45.37,2.56-.14,3.73-.09c5,.2,10.18.09,15.09.09a12.9,12.9,0,0,1,3.45.37,16.25,16.25,0,0,0,3.64.19c2.31,0,4.51.72,6.8.84a21.16,21.16,0,0,1,3.26.56,22.86,22.86,0,0,0,3.54.28c2.25.06,4.33.88,6.43,1.11,2.34.26,4.6.48,6.9.75,3.25.38,5.93,1.67,9,2.33,1.09.23,2.32.14,3.36.47.49.15.87.49,1.3.65a8.49,8.49,0,0,0,1.59.28,9.44,9.44,0,0,1,2.79.93,8.18,8.18,0,0,0,3,.84A6.91,6.91,0,0,1,326.06,24c1,.57,2,.33,3.26.56a6.32,6.32,0,0,1,1.3.65,11.11,11.11,0,0,0,1.49.37,29.75,29.75,0,0,1,2.8,1,100.36,100.36,0,0,1,11,4.19c.83.42,1.55,1,2.42,1.4,4.34,2,9.18,3.41,13.05,6.06a9.94,9.94,0,0,0,2.23,1.49c1.88.56,4.14.94,5.78,1.86s2.59,2.25,4.29,3.36c.71.46,1.67.85,2.52,1.3,2.43,1.3,5.27,2.28,7.54,3.82,3.09,2.09,5.26,4.86,8,7.18a8.75,8.75,0,0,1,1.86,2c.49.77.84,1.61,1.4,2.43a32.14,32.14,0,0,0,3.54,4,8.82,8.82,0,0,1,2.61,5c.21,2.66-1.48,3.38-2.61,5-.48.71-.87,1.61-1.39,2.42a49.41,49.41,0,0,0-3.64,7.74c-.36.89-.61,1.88-.93,2.89s-.74,1.85-1,2.79a29,29,0,0,0-.56,3.27,14.25,14.25,0,0,1-.93,2.88c-1.49,3.8-2.58,7.76-3.73,11.47s-2.46,7.69-3.44,11.83c-.49,2.05-.93,4.1-1.5,6.15a19.25,19.25,0,0,0-.46,3.36c-.28,3-2.14,5.6-2.52,8.85-.25,2.15-.7,4.34-.84,6.71a24.44,24.44,0,0,1-.37,3.45,28.12,28.12,0,0,0-.56,3.26,57,57,0,0,0-.37,6.81,16.59,16.59,0,0,1-.47,3.35c-.45,3.36-.12,7.29,0,10.72a23.44,23.44,0,0,0,0,3.26,3.89,3.89,0,0,0,1.31,2.52,7.26,7.26,0,0,0,2.51,1.3c.91.29,1.82.29,3.17.56a12.75,12.75,0,0,1,1.4.56c.49.16,1.08.14,1.59.28a27.44,27.44,0,0,1,2.7,1.12c.93.38,2,.44,3,.84a22.56,22.56,0,0,0,2.89.93c1.14.3,2.15.36,3.17.65a18.62,18.62,0,0,1,2.79,1c1.76.79,3.66,1.12,5.69,1.86.89.33,1.68.78,2.61,1.21s1.89.64,2.79,1a53.05,53.05,0,0,1,5.13,2.51,38.74,38.74,0,0,0,5.31,2.33,16.31,16.31,0,0,1,4.66,2.89c1.39,1.23,3,2.16,4.38,3.26s2.68,2.37,4,3.55a23.48,23.48,0,0,1,2,1.77c1.19,1.29,2.62,2.47,3.73,3.91a52.41,52.41,0,0,1,2.89,4.66c.5.84.77,1.72,1.21,2.61s1,1.59,1.4,2.42a21.54,21.54,0,0,1,1,2.8,27.82,27.82,0,0,1,.65,3.17c.21.94.67,1.93.94,2.89a24.73,24.73,0,0,1,.46,6.71,59.13,59.13,0,0,1-.18,7.08c-.14,1-.47,2.13-.66,3.17-.37,2.08-1.32,3.63-2.05,5.59a13.36,13.36,0,0,1-1.21,2.61,15.45,15.45,0,0,1-3.35,4.19c-1.47,1.11-2.58,2.52-3.92,3.73a26.48,26.48,0,0,1-2.14,1.68,25.87,25.87,0,0,1-7.36,4.1,14.94,14.94,0,0,0-2.8,1c-.88.48-1.75.72-2.61,1.11a26.64,26.64,0,0,0-2.24,1.59,23.23,23.23,0,0,1-2.61,1.21,54,54,0,0,0-4.94,2.61,10.4,10.4,0,0,0-2.23,1.58,10,10,0,0,0-1.31,2.52,14,14,0,0,0-.93,2.89,8.93,8.93,0,0,0-.28,3.26,15,15,0,0,0,1,2,6.79,6.79,0,0,0,4.66,4.1,10.13,10.13,0,0,0,2.7.09c.89,0,1.79.13,2.61.09,1.75-.07,3.09-1.17,4.75-1.11,2.16.06,3.61,2.05,3.17,4.47a10.31,10.31,0,0,1-1.21,2.7,17.71,17.71,0,0,1-1.49,2.33c-1.08,1.53-1.61,3.94-2.33,5.5-.41.87-1,1.73-1.31,2.61a37.47,37.47,0,0,1-3.54,8.11,26.19,26.19,0,0,0-1.49,2.42,13.33,13.33,0,0,1-1.58,2.24,31.65,31.65,0,0,0-2.89,4.94,25.76,25.76,0,0,1-3.17,4.56,10.41,10.41,0,0,1-1.87,2.05c-.73.51-1.56,1-2.42,1.5a26.61,26.61,0,0,1-2.33,1.58,33.22,33.22,0,0,1-6.06,1.68,20.87,20.87,0,0,0-5.31,2.51c-.83.48-1.75.78-2.61,1.22a50.19,50.19,0,0,0-4.66,3.16,14.54,14.54,0,0,0-2.14,1.78,10.94,10.94,0,0,1-2.24,1.58,27.23,27.23,0,0,0-4.47,3.26,15.25,15.25,0,0,1-2.33,1.59,8.16,8.16,0,0,0-2.05,1.77c-1.4,1.54-3.37,1.94-4.47,3.35a18,18,0,0,1-1.59,2.33,10.29,10.29,0,0,0-1.77,2.05c-1.11,1.76-2.58,2.51-3,4.85a6.11,6.11,0,0,0,.37,3.35,18.94,18.94,0,0,1,.93,2.89c.5,2.23.83,4.59,1.31,6.53a17.9,17.9,0,0,0,4.19,7.45,19.48,19.48,0,0,1,1.59,2.33,16.82,16.82,0,0,0,1.86,2.05c.6.67,1,1.54,1.58,2.24,2.28,2.88,4.65,5.71,7,8.57a54.31,54.31,0,0,1,3.45,4.38c1,1.55,1.92,3.17,3,4.75,4.18,6.24,8.52,12.62,11.75,19.3,10.41,5.35,20.34,11.63,30.47,17.24,5.21,2.88,10.21,5.81,15.19,8.67,1.3.74,2.56,1.44,3.73,2.23,3.43,2.33,6.63,5.19,10,7.83a53.08,53.08,0,0,1,6.25,5.69c3.76,4,7.74,8.19,11.55,12.3a84.31,84.31,0,0,1,5.13,6.71q5.12,6.74,10.25,13.6a54.37,54.37,0,0,1,4.66,7.27c1.34,2.57,2.49,5.27,4,7.83v34.58H328.67c.65-.24,1.43-.19,2.14-.47,1.75-.68,3.39-1.65,5.13-2.42,7-3.13,13.57-6.21,20.5-9.69,4.45-2.24,8.87-4.46,13.23-6.9,3.59-2,7.39-4.62,10.81-6.8.53-.34,1.16-.59,1.59-.94a2.41,2.41,0,0,0-.1-3.82c-2-1.28-5.51-1.32-8.66-1.77-15.66-2.24-30.69-4.55-46.23-6.89-3-.45-5.92-1.08-9.13-1.49a25.35,25.35,0,0,1-4.57-.75c-1.33-.45-2.64-1.41-2.89-2.42a2.74,2.74,0,0,1-.09-.84c.17-3.17,4.17-3.15,7.73-3,.61-.85,2-.38,3-.38,8.3.05,16.39.37,24.69.66,6.8.23,14,.34,21.07.65,3.56.15,7.39.56,8.38-1.87.85-2.06,1.42-4.51,2.24-6.89a60.28,60.28,0,0,0,2.24-6.9c1-4.93,2.09-10,3.07-15.19s1.51-10.71,2.05-16.22c.28-2.8.74-5.6.75-8.38A96.2,96.2,0,0,0,384,435.78a47.69,47.69,0,0,0-2.14-7,24.73,24.73,0,0,0-3.17-6c-1.22-1.85-2.48-3.63-3.73-5.5-2.35-3.55-5.09-6.83-7.82-10.44a50.18,50.18,0,0,0-4.48-4.66c-1.05-1.05-3.35-4.17-4.94-4.29-2.51-.19-3.55,2.85-4.66,4.85s-1.91,3.9-2.89,5.59c-2.13,3.71-4.12,7.55-5.87,11.09-1.86,3.76-3.95,7.44-5.87,11.09A114.46,114.46,0,0,1,331.83,441c-4.56,6.81-9.14,13.56-13.6,20.32-2.26,3.41-4.58,6.68-7.09,9.87s-4.94,6.47-7.36,9.7-4.79,6.57-7.45,9.5c-1.35,1.49-2.54,3.14-3.92,4.57-7,7.23-14,14.35-21.06,21.44-2.79,2.78-5.56,5.74-8.29,8.66a70.48,70.48,0,0,1-6.25,6.53,16.58,16.58,0,0,0-2.05,2.23c-3.87,4.65-7.84,9.16-11.46,14a54.59,54.59,0,0,0-3.64,4.94,7.76,7.76,0,0,0-1.86,2.52H220.09c.64-1.63,2.36-2.43,3.08-3.92a5.93,5.93,0,0,0,.65-3c-.16-1.63-1.18-3.45-1.68-5.22a21,21,0,0,0-1-2.42c-.41-.94-.33-2-.66-2.8-.24-.58-.83-.95-1.11-1.49a10.69,10.69,0,0,1-.66-2,30.68,30.68,0,0,0-1.21-4.1c-.47-1.12-1.25-2-1.86-3.45s-1.32-2.88-2.42-2.89c-1.34,0-2.1,1.69-2.71,3-.72,1.53-1.55,2.49-2.05,3.72-.59,1.46-1.05,2.87-1.49,4.2s-1.38,2.59-1.86,3.91c-.94,2.56-2.37,5.21-3.64,7.83-1.11,2.31-3.73,5-6.8,4.66a9.83,9.83,0,0,1-4.47-2c-.66-.44-1.43-.75-2.05-1.21s-1.15-1.45-2-1.12c-.34,2.82,2.5,3.83,1.86,6.43a2.25,2.25,0,0,1-2.42,1.68c-.93-.05-1.58-.76-2.43-1.4-.64-.48-1.8-1.36-2.61-1.21-1.07.2-1.41,1.85-1.49,2.89H63.71ZM167.53,51.44c.42.67,1.24.44,1.86.75a4.1,4.1,0,0,1,2.24,4.93,2.77,2.77,0,0,1-1,1.31c-.55.42-1,.61-1.12,1.12-.18,1,.71,1.94,1.12,2.7A10.87,10.87,0,0,0,172,64.58c.91.89,2.79,1.21,3.45,2.14a4.06,4.06,0,0,1,.65,2.8c-.13,1.36-1.3,2.19-1.49,3.63-.1.81.34,2.21.38,3.64a16.49,16.49,0,0,1,0,1.86,5.31,5.31,0,0,0-.1,1.77c.49,1.86,2.17,1.25,4.29,1.77,1.45.36,2.23,2.69,2.14,4.76,0,.54-.25,1-.28,1.67a18.8,18.8,0,0,1,.19,2.61c-.17,1.18-1.27,2.07-1.4,3.27-.24,2.38,1.38,3.17,2.89,4.1.66.4,1.83.92,2.24,1.86.84,1.93.22,4.46-.47,6a6.43,6.43,0,0,0-.93,2.23c0,1,.86,2,1.21,3.17.17.56.27,1.18.47,1.77a8,8,0,0,1,.46,1.68c.13,1.81-1,3.38-.93,4.94.08,1.81,1.75,3.19,2.33,4.75a28.78,28.78,0,0,1,1,5.41c.23,1.64.47,4.7,1.21,5.12s1.62-.05,2.7-.37c.92-.27,2.06-.43,2.7-.65s1.19-.62,1.77-.84c1.88-.72,3.92-1,6-1.59,1.19-.36,2.39-1,3.63-1.39s2.64-.73,3.92-1.12,2.54-.83,3.91-1.12c2.74-.57,5.68-1,8.48-1.59,1.37-.3,2.7-1,3.92-1.11.8-.1,1.57.08,2.33,0,.6-.07,1.18-.38,1.77-.47a16.6,16.6,0,0,0,2.05-.28c1.3-.39,2.83-.56,4.56-.93a24.17,24.17,0,0,1,2.71-.56c.89-.09,1.79.1,2.7,0a41.61,41.61,0,0,1,4.38-.65c.84,0,1.67,0,2.52,0,.7,0,1.41-.23,2.14-.28,2.33-.18,4.77.1,7.08-.1,1.08-.09,2.09-.36,3.08-.46a32.5,32.5,0,0,1,3.26.09c1,0,2-.32,3-.28,3.1.13,6,.43,9,.47.54,0,1.12-.2,1.68-.19,1.74,0,3.49.4,5.22.47s3.62-.13,5.4-.1a32.57,32.57,0,0,1,5,.66c1.78.32,3.58.12,5.32.28,2.05.18,4,1,6.05,1.21.94.09,1.87-.09,2.8,0,1.12.1,2.33.48,3.63.65,2.41.32,5,.67,7.46,1.12,1.39.25,2.67.23,3.91.46.82.16,1.52.65,2.24.84s1.69.24,2.52.47,1.55.74,2.23.93,1.45.18,2.24.47a18.27,18.27,0,0,0,2.05.56c.7.16,1.36.47,2.05.65s1.53.18,2.24.37c1.29.36,2.59,1.09,4.1,1.49a36.11,36.11,0,0,1,4.19,1.4c1.35.56,2.76.93,4.1,1.49s2.65,1.16,3.92,1.68,2.32,1.35,3.63,2a27.89,27.89,0,0,1,5.31,3.07c1,.79,1.8,1.93,3.17,2.43,3.17,1.13,3-1.47,3.54-3.64.23-.89.7-1.7.94-2.61s.5-1.86.74-2.79c1-3.77,1.17-7.95,2.24-11.84.52-1.91.82-3.82,1.3-5.69.34-1.3.89-2.47,1.12-3.82a57.55,57.55,0,0,1,2.24-7.55c.43-1.36.62-2.71,1-4.1s1-2.38,1.31-3.72A36,36,0,0,1,382.91,95c1.19-3.24,2.1-6.45,3.63-9.22.33-.61.63-1.25.93-1.87,1.26-2.61,1.84-5.17,3.26-7.73.29-.52.57-1.23.94-1.87.68-1.2,1.29-1.46.84-3.35a12,12,0,0,0-2-3.45c-.84-1.06-1.51-2.21-2.24-3.08-.41-.49-1.07-.94-1.58-1.49a10.71,10.71,0,0,0-1.59-1.4c-1.23-.87-2.15-2.12-3.17-2.88s-2.47-1.55-3.72-2.33-2.73-1.38-3.92-2c-1-.58-1.91-1.51-3-2.15-.48-.29-1.08-.38-1.58-.65s-1-.8-1.5-1.12-1.22-.52-1.77-.84c-1.13-.67-2.07-1.69-3.07-2.14s-2.05-.52-3-.93a36.28,36.28,0,0,1-4.85-3,19.39,19.39,0,0,0-2.24-1.58c-.7-.32-1.5-.38-2.23-.65-1-.39-2-1-3.08-1.4s-2.19-.72-3.26-1.12c-.63-.23-1.14-.67-1.77-.93-1.77-.72-3.93-1.06-5.69-1.86-.51-.24-1-.64-1.58-.84s-1.38-.2-2.05-.38a21.12,21.12,0,0,1-3.54-1.21,32.23,32.23,0,0,0-5-1.58c-1.19-.3-2.36-.38-3.54-.65-.9-.21-1.8-.88-2.7-1.12-1.6-.44-3.22-.45-4.94-.84-.66-.15-1.22-.67-1.86-.84s-1.13-.07-1.68-.19c-.84-.18-1.58-.69-2.42-.93a40.33,40.33,0,0,1-4-1.12,32.34,32.34,0,0,0-3.73-1.3c-1-.24-2.08-.23-3.07-.47s-1.85-.74-2.71-.84-1.9.11-2.89,0a25.12,25.12,0,0,1-2.51-.74c-.93-.21-2-.19-2.89-.37-1.15-.24-1.95-.91-3.17-1-1.85-.19-3.68.05-5.59-.19-.89-.11-1.76-.1-2.7-.18-.78-.07-1.53-.45-2.33-.56a56.74,56.74,0,0,0-7.74-.1H249c-2.73,0-5.68-.18-8.1-.09-1.58.06-3.46.62-5.41.65-.91,0-1.83-.16-2.7-.09s-1.56.35-2.33.47-1.76,0-2.61.09-1.56.46-2.33.56c-1.1.13-2.36-.08-3.36.09-2,.37-4.1,1.34-6.15,1.59-.85.1-1.74.08-2.61.18s-1.54.29-2.33.38c-.59.06-1.25-.08-1.86,0s-1.1.45-1.68.56-1.26,0-1.86.09c-1,.19-2,.62-3,.84-.55.11-1.11.14-1.67.28s-.94.39-1.4.46-1.2,0-1.77.1c-.75.14-1.49.56-2.24.74s-1.69.2-2.51.37-1.74.51-2.61.75-1.91.28-2.89.47-1.8.64-2.71.83c-.67.15-1.47,0-2.14.19s-1.31,1-2.14,1.31-1.68.32-2.52.55a23.29,23.29,0,0,1-2.52.56,38.31,38.31,0,0,0-9,3.27c-1.44.66-3.19,1-4.19,1.86a4.28,4.28,0,0,0-1.4,3.36,4.64,4.64,0,0,0,2.8,2.51c1.52.11,2-1.07,3.82-.84,2,.25,2.77,2.16,2.33,4.29C169.5,48.48,167.59,49.34,167.53,51.44Zm-40,9.6c-.86-.59-1.75.42-2.42,1.21-2.73,3.18-5.51,5.83-7.37,9.88-.72,1.58-2,3-2.05,4.85,0,.72.31,1.93.38,3.07a10.6,10.6,0,0,0,.46,3.08c.27.69.74,1.35,1.12,2.14s.74,1.44,1.12,2.14c.76,1.42,1.28,3,2,4.38.63,1.11,1.53,2.17,2.24,3.27s1.37,2.31,2,3.44c1.42,2.4,2.5,4.93,3.82,7.09.41.68,1.12,1.17,1.49,1.86.62,1.16.72,2.63,1.21,3.82.28.68.94,1.14,1.3,1.77,1,1.63,1.7,3.58,2.61,5.5a31.27,31.27,0,0,1,1.21,2.89c.36,1,.93,1.9,1.22,2.8.16.5.11,1.07.28,1.58s.42.84.56,1.3c.54,1.85,1.45,3.46,2.14,5.32a20.15,20.15,0,0,1,.93,2.7c.17.84,0,1.43.19,2.14s.65,1.22.93,2,.47,1.53.74,2.33a35,35,0,0,1,1,3.63c.12.49.41.92.56,1.5.56,2.17.78,4,1.4,6.52a11.92,11.92,0,0,0,1.12,2.89c.42.87.81,2,1.77,2.14,1.58.18,2.29-1.44,3.26-2.23.67-.55,1.47-.88,2.14-1.5a18.7,18.7,0,0,0,1.77-1.86c1.09-1.28,2.87-2.48,3.54-3.73a30.23,30.23,0,0,0,1.12-3c.59-1.55,1.6-3.54.75-5.41-.53-1.14-2.28-1.69-3.36-2.51-1.79-1.37-3.76-2.85-1.77-5.22.72-.86,1.47-1,1.31-2.7-.22-2.2-3.11-3.53-4-5.78a5.84,5.84,0,0,1-.37-2c0-2.21,2-3.69,1.86-5.78-.07-1-1-1.71-1.86-2.8a26.85,26.85,0,0,1-1.77-2.88c-.56-.92-1.29-1.78-1.87-2.8a14.94,14.94,0,0,1-1.49-3.17c-.22-.79-.13-1.6-.37-2.24-.46-1.2-2-1.53-2.33-2.61a9.32,9.32,0,0,1,0-2.42c0-.9-.18-1.83-.1-2.51s.87-1.56.84-2.43c-.05-1.63-2-2.44-2.33-3.73-.42-1.44,0-2.63,0-3.91a11.2,11.2,0,0,0-.46-2.52c-.16-.54-.57-1.09-.75-1.67s-.15-1.33-.37-1.87a25.79,25.79,0,0,0-1.86-2.7c-.44-.72-.66-1.65-1.12-2.24-.68-.86-2.21-1.38-2.52-2.33-.56-1.71.4-2.67.28-4.19-.22-2.86-2.33-3.87-4.75-4.57C131.23,62.38,128.6,62.45,127.55,61ZM250.66,182.1c2.24.09,3.63-1.84,5.22-2.89a47.6,47.6,0,0,0,4.94-3.35c.91-.79,1.42-1.84,2.42-2.61.5-.39,1.26-.75,2-1.21a6,6,0,0,1,4.85-1.12,12.29,12.29,0,0,1,2.79,1.12c1.76.92,3.49,2.72,5.41,3.91.94.58,2,.86,2.79,1.3s3.16,2.55,4.2,1.22c.4-.53-.2-1.94-.47-2.89-.78-2.72-1.77-4.18-2.8-6.71a18.8,18.8,0,0,1-1.3-4.38c-.35-3.25,1-4,2.8-5.32.56-.41,1-1,1.49-1.3.73-.47,1.67-.63,2.42-1.12a17.41,17.41,0,0,0,1.86-1.68c.63-.53,1.54-.93,1.68-1.86-1.14-1.35-2.88-1-5-1-1.14,0-2.49-.47-3.92-.65-2.82-.35-5.14-.27-7-1.3a10.53,10.53,0,0,1-2.88-3c-1.51-2.08-2.26-4.95-4.1-6.9a6.33,6.33,0,0,0-2-1.4c-1.27-.08-1.61,1.78-2.24,3.17a31.6,31.6,0,0,0-1.58,3.82c-.27.86-.27,1.85-.47,2.42s-.66.89-1.12,1.49-.65,1.31-1,1.59a10.8,10.8,0,0,1-3.17,1.12,51,51,0,0,1-10,1.49c-1.67.15-3.27,1.12-3.27,2,0,.67,1.16,1.39,1.78,2a29.8,29.8,0,0,0,4.38,3.08c.72.48,1.38,1.13,2.14,1.68,1.37,1,3.54,2,3.73,3.91.24,2.4-1.73,4.5-2.43,6.24s-1,3.65-1.58,5.41C250.82,179.49,249.8,180.76,250.66,182.1Zm91.43-31.69c-2.2-.36-3,2.44-4,4.1s-2.66,3.86-4.94,4.11a13.21,13.21,0,0,1-2.7-.19c-.84-.11-1.69-.11-2.61-.19a32.06,32.06,0,0,1-3.36-.65c-1.63-.24-2.66,0-2.79.93-.22,1.51,1.84,2.62,2.33,3.26a40.22,40.22,0,0,1,1.95,3.64c.69,1.17,1.63,2.57,1.68,3.82.09,2.22-1.31,3.77-2.52,4.94-.61.59-1.47,1.26-1.11,2.42.53,1.77,5.35,1.08,7.73.93,2-.12,4.16.15,5.78,0,.8-.07,1.57-.47,2.24-.56,2.75-.33,6.27,0,9.41,0a10.6,10.6,0,0,0,3-.09c.89-.34,1.17-1.64,2-2.24a9.24,9.24,0,0,1,1.77-.74,16.19,16.19,0,0,1,1.58-.84c.56-.16,1.22-.11,1.77-.28,1.06-.32,3.14-1.34,3.17-2.24s-1.6-1.67-2.23-2.14a11.08,11.08,0,0,0-2.71-1.68c-.85-.33-1.62-.33-2.33-.56-1.21-.38-2.34-1.08-3.54-1.49a12.57,12.57,0,0,1-3.45-1.49,5.94,5.94,0,0,1-1.3-1.68,10.2,10.2,0,0,1-1.12-1.77,20.24,20.24,0,0,1-.37-2c-.14-.57-.56-1.28-.75-2C344.07,153.82,344.14,150.75,342.09,150.41ZM215.53,160.85c-2-1.47-4.23-.08-6.06.47-.69.2-1.43.23-2.05.46s-1.16.84-1.87,1.12c-1.16.47-2.64.6-3.91,1-.62.2-1.15.67-1.68.84-.78.24-1.81.37-2.7.55-2.61.56-3.67.36-5.41-1a20.35,20.35,0,0,1-2.14-1.77c-.66-.71-1.27-1.76-2-2.42-1.36-1.32-4.36-3.63-4.66.37-.1,1.38,0,2.56,0,3.91a37.44,37.44,0,0,1,0,3.82c-.38,3.14-2.82,4.51-5.12,6-.68.43-1.32.82-2.05,1.21s-1.36,1-2,1.31c-1,.45-1.88.44-2.61.83-.55.3-2.66,2.11-2.61,2.89.06.93,1.66,1.46,3,2a37.46,37.46,0,0,0,4.1.84,26.58,26.58,0,0,1,2.52,1.12c2,.78,3.66,1.36,4.38,3.45a13.83,13.83,0,0,1,.28,3.82c-.14,2.65-.8,5.5-.56,7.92.06.57.32,1.07.37,1.58.19,1.67-.23,2.74.56,3s1.62-.78,2.15-1.3a17.76,17.76,0,0,0,1.39-2c.61-.77,1.56-1.52,2.05-2.23s.92-1.79,1.5-2.8a20.27,20.27,0,0,1,4-4.85,5.69,5.69,0,0,1,3-1.58c1.6-.13,2.94.52,4.47,1,2.92,1,4.86,1.67,8.11,2.8,1.15.4,3.29,1.55,4.1.75,1.16-1.17-.94-3.37-1.49-4-.89-1-2.2-2-3-3-.39-.5-.56-1.12-1-1.77-1.42-2-3.56-3.85-4.1-6.06-.82-3.33,1.05-5.36,2.52-7.18.85-1.05,1.95-1.85,2.79-2.79,1.14-1.29,2.11-2.61,3.17-3.83.52-.6,1-1.37,1.49-2S215.76,161.91,215.53,160.85ZM339.2,182.94c-.61,0-1.84.16-2.89.19-.72,0-1.44-.19-2.05-.19s-1.54.23-2.33.28c-2.24.14-4.67-.27-7-.09-.65,0-1.29.3-2,.37-3.17.3-6.48,0-9.69,0s-6.6-.27-9.69,0c-.79.07-1.54.46-2.33.56-.57.06-1.2-.07-1.77,0s-1.29.46-2,.56-1.32-.09-2,0a8.36,8.36,0,0,0-1,.37c-.4.11-.82.1-1.22.19-.7.16-1.3.58-1.95.74-1.31.32-2.6.18-3.92.37-.72.11-1.43.42-2.23.56-1.41.26-2.86.72-4.29,1.12-.8.22-1.6.19-2.33.37s-1.66.87-2.52,1.12c-1.1.33-2.37.45-3.54.75s-2.17.81-3.26,1c-.69.14-1.44.05-2.14.19a23.59,23.59,0,0,0-4.29,1.4c-1.44.6-2.82,1-4.19,1.49-1,.34-1.76,1-2.71,1.4-1.66.69-3.51.9-5.22,1.49-.85.29-1.59.7-2.42.93s-1.85.31-2.8.56c-.65.18-1.19.69-1.86.93-1.65.59-3.43,1-5.12,1.68-.77.29-1.5.79-2.24,1.12s-1.72.5-2.52.84-1.63,1.09-2.51,1.49c-5.35,2.43-10.92,5-16.31,7.45-1,.44-2,.54-3,.93-1.41.57-2.4,1.68-3.91,2.24-.69.26-1.5.26-2.24.56-1.06.43-2.19,1.51-3.26,2-.62.26-1.55.35-2.24.65s-1.29,1-2.23,1.4-2.28.66-3.36,1.12c-.83.34-1.44,1-2.05,1.3-1.55.67-4.7,1.26-4.47,2.7.28,1.75,2.41.53,3.17.19,10.86-4.9,21.93-10.13,32.8-14.91,1.11-.49,2.31-.85,3.45-1.31,2.27-.9,4.56-1.74,6.8-2.7,1.11-.47,2.13-1,3.27-1.49s2.07-1.16,3.17-1.58,2.19-.58,3.16-1a20.18,20.18,0,0,1,2.89-1.3c1.07-.3,2.18-.48,3.26-.75s2-.6,3-.93c2-.67,4.11-1,6.05-1.77,2.92-1.15,6.19-1.56,8.95-2.8.88-.39,1.61-1,2.52-1.4,2.5-1.07,6-1.52,8.94-2.33a27.45,27.45,0,0,1,2.89-.83c1.12-.16,2.18.12,3.45,0,.69-.07,1.27-.44,2-.56.95-.18,2-.11,3-.28.6-.11,1.18-.47,1.77-.56,1.14-.18,2.32-.08,3.45-.28.57-.11,1.12-.49,1.68-.56s1.44.1,2.14,0c1.37-.2,2.62-1,3.92-1.12,1.5-.19,3,.14,4.56,0,1.22-.11,2.39-.47,3.64-.56,2.21-.16,4.48.13,6.71,0a122.21,122.21,0,0,1,14.91-.46c1.08.06,2.11.33,3.17.37,1.29,0,2.55-.12,3.82-.1s2.33.29,3.54.38c2.4.16,4.8-.18,7.18-.1,1.1,0,2.32.34,3.54.47s2.22.43,3.35.56c2.5.29,5.13.14,7.36.56.64.12,1.23.48,1.87.56.86.1,2.11-.09,3.17,0,.88.07,1.8.41,2.79.56s2.06.06,3.08.18,1.93.23,2.89.38,1.74.53,2.61.65,1.33,0,1.95.09c1.87.31,4.34,1.1,6.43,1.68,5.42,1.48,10.27,2.74,15.85,4.29,1.12.31.8.44,1.58.46.56,0,1.23-.13,1.31-.65.13-.85-1.6-1.56-3.17-2.05-1.33-.42-2.81-.67-4-1.12s-1.87-1.22-2.89-1.58c-.58-.21-1.18,0-1.86-.19s-1.25-.7-2-.84-1.46,0-2.24-.18c-1.09-.22-2.21-.73-3.35-1s-2.26-.76-3.36-1c-1.3-.33-2.58-.4-3.72-.75-.72-.22-1.35-.77-2.05-.93-1.29-.3-2.83-.14-4.2-.38-1.19-.2-2.46-.73-3.63-.83-2.3-.21-4.58.16-6.9,0a19.46,19.46,0,0,1-2.42-.47c-.76-.16-1.52-.55-2.24-.65-2.43-.35-5.2,0-7.73-.19-.78-.05-1.56-.31-2.33-.37-1.93-.15-3.86-.23-5.78-.37S341.16,183,339.2,182.94Zm-5.32,39.61c2.3.91,9.06-1.09,9.51,2a2.08,2.08,0,0,1-.93,2.05c-.63.32-1.63.1-2.42.28a10.35,10.35,0,0,0-1.87,1c-1.72.89-4,1.88-5.59,2.8-1,.59-1.92,1.32-2.89,1.86a18.25,18.25,0,0,1-3.26,1.49c-1.13.39-2.17,1.05-3.36,1.4s-2.48.5-3.82.84c-1.17.3-2.5.56-3.82.93a18.92,18.92,0,0,1-3.63,1c-2.93.22-6-.39-9.14.28a6,6,0,0,0,2.71,2.42,17.43,17.43,0,0,1,1.67.93c1.58,1,3.36,1.16,6.06,1.49,1.35.17,2.69.61,3.82.75a51.2,51.2,0,0,0,5.32.19c.89,0,2.14-.43,3.44-.56s3.67-.6,4,.74-.94,2.54-1.68,3.36a10.54,10.54,0,0,1-3,2.61c-1.69.78-4,.89-5.68,1.3-1,.23-1.79.66-2.71.84-4.54.91-8.34-.72-11.46-2.05-.8-.34-1.53-.79-2.33-1.12s-1.44-.37-2.05-.65a17.5,17.5,0,0,1-2.61-1.59,35.8,35.8,0,0,0-5.5-2.79,23.35,23.35,0,0,0-2.89-1.59c-1.45-.44-2.87-.6-4.28-.93a17.9,17.9,0,0,0-2.15-.46c-.76-.09-1.57,0-2.51-.1-.48-.05-.92-.34-1.49-.46s-1.26,0-1.87-.1-1.32-.49-1.86-.56c-1.76-.21-3.66.32-5.59.47a53.25,53.25,0,0,0-5.5.47,26.74,26.74,0,0,0-4.57,1.39,23.69,23.69,0,0,0-4.38,1.87c-1.82,1.26-2.55,4-.37,5.4.57.38,1.32.48,2,.84a47.14,47.14,0,0,1,4.76,3.73,7.63,7.63,0,0,0,3.82,1.86,17.42,17.42,0,0,0,2.89-.55c1-.17,1.9-.66,2.7-.75,2-.22,3.39.87,3.45,2,.09,1.74-2.14,2.78-3.82,3.35-2.63.9-7,.72-10,.28-1-.14-1.85-.52-2.8-.74s-2-.36-3-.56a28.15,28.15,0,0,0-2.89-.65,35.94,35.94,0,0,0-5.87,0,20.37,20.37,0,0,0-5.22,1c-.61.25-1.29,1-1.87,1.31-.76.41-4.22,1.32-4.1,2.51.09.87,1.68.77,2.71,1,.51.13.93.42,1.39.56s1.16.17,1.68.28c1.45.29,3,.94,4.66,1.4.83.23,1.66.27,2.42.55s1.35.66,2.05.94a38.78,38.78,0,0,0,4.66,1.3c1.5.36,3.48,1.13,3.55,2.42.05,1.1-.94,1.77-2.15,2s-2.38-.33-3.63-.46c-.77-.08-1.49,0-2.24-.1-1.62-.28-3.91-1.27-5.78-.37.46,1.27,2.2,1.43,3.45,2.24a12.66,12.66,0,0,0,3.73,1.86c1.36.34,2.78-.32,4.38-.56,2.41-.36,6.86-.31,6.43,2.14-.25,1.42-1.71,1.08-3,1.22a15.07,15.07,0,0,0-4.1,1.11c-2.14,1-3.85,2.14-6.81,1.59-2.61-.49-4.63-2.68-6.33-4.38-.5-.5-1.8-1.51-2.71-.84-.68.51-.57,2.27-.74,2.7-1.64,4.15-8.79,4.16-11.84,1.21-.78-.75-.85-1.84-2.23-2a6.32,6.32,0,0,0-3.73,1.3,12.58,12.58,0,0,0-3.82,3.73c-1,1.49-2.14,3.26-3.64,3.91-3.59,1.58-6.24-2-7.36-4.1-.65-1.19-.94-2.53-1.58-4-.81-1.84-1.9-3.73-2.89-5.5-.35-.62-.53-1.35-.84-1.87s-1-1.07-1.49-1.67c-1.14-1.45-1.67-2.17-4-2.61a8,8,0,0,0-3-.28c-3,.75-2.16,6.09-2.52,9a7.87,7.87,0,0,1-.93,2.42c-.39.78-.94,1.37-1.31,2.05-.45.85-.86,1.81-1.3,2.7s-.84,1.89-1.21,2.8c-1.52,3.69-4,6.27-5.13,10.72a25.09,25.09,0,0,1-.65,3.35,10.48,10.48,0,0,0-.93,3,36.42,36.42,0,0,1-.28,3.82c-.22,1.07-.53,2.05-.84,3.27-.58,2.26-.5,4.64-.84,7.36a31,31,0,0,1-.84,3.35c-.52,2.2-1.44,4-2,6.34-.31,1.42-1.08,2.78-.74,4.38.29,1.39,1.38,2.35,2.24,3.36,2.33,2.74,4.45,5.13,9.41,4.94.9,0,1.8.17,2.7.18,1.34,0,2.82-.36,4.1,0s2.11,2,2.89,3.08a23.09,23.09,0,0,1,3.08,4.94,15.91,15.91,0,0,1,.74,1.86c.14.58.07,1.35.19,2.14s.39,1.25.46,1.87c.27,2.13-.47,5-3,4.75-1.51-.13-1.91-1.52-2.33-3.07-.17-.62-.42-1.31-.56-1.87-.29-1.24-.07-3-1.58-3.17-1.25,1-.58,2.62-.56,4.1a25,25,0,0,1-.09,2.71c-.13,1.2-.85,2.28-1.12,3.54-.12.54,0,1.14-.1,1.68-.14.86-.76,1.45-.65,2.33.14,1,1.6,1.91,2.52,2.05,2.43.36,4.65-.62,6.71-1.31s3.94-1.37,6-2a38.33,38.33,0,0,1,6.81-1.21,33.3,33.3,0,0,1,7.54-.37c1.87.25,3.18,1.51,4.94,1.86,1.15.23,2.52,0,4,.1,1,.09,1.87.5,2.8.56s2-.24,3.07-.28a12.59,12.59,0,0,0,2.71-.19,15.08,15.08,0,0,0,2.33-.65c1-.45,2.15-1.67,3.91-1.49,1.19.11,2.95,1.82,3.54,2.61s1,1.72,1.59,2.51a15.49,15.49,0,0,1,1.58,2.43c1.16,3.29-1.18,7.61-4.75,6.05-1-.43-1.76-1.62-2.61-2.61-1.22-1.4-2.5-3.59-4.57-4a19.61,19.61,0,0,0-2.33-.1c-.55,0-1.12-.23-1.68-.28a46.5,46.5,0,0,1-5.12-.28,51.48,51.48,0,0,0-10.44-.28,18.64,18.64,0,0,0-2.42.28,12.21,12.21,0,0,1-2.33.56c-3.79,0-6.59.19-9.42,1.22-.9.32-1.8.39-2.79.65-1.75.46-3.75.95-5.78,1.3s-4.2.7-5.5,1.49c-.88.54-2.68,2.85-2.42,4.66a3.32,3.32,0,0,0,2.51,2.52c1.86.43,3.7,0,5.5-.19,1.27-.11,2.64-.18,4-.28s3.06-.52,4.29-.18a4.88,4.88,0,0,1,3.63,2.89c.59,1.51.22,4.29.93,6.43.38,1.12,1.12,1.83,1.31,2.7.94,4.23-1.56,6-5.87,5.59-1.08-.11-1.95-.77-3.08-.74a4.5,4.5,0,0,0-3.35,1.95c-.51.85-.46,1.92-.94,2.89a18.55,18.55,0,0,1-1.58,2.15c-.82,1.13-1.55,2.67-3.82,2.23a2.44,2.44,0,0,1-1.68-2.05,14.23,14.23,0,0,1,0-2c0-.53-.23-1-.28-1.58-.17-2-.19-4-1.68-4.75-1.1,1.28-1.12,3.32-1.67,4.94a30.11,30.11,0,0,1-1.77,3.35c-.38.79-.55,1.47-.93,2.14-2.2,3.81-5.62,6.38-8.3,9.88-.42.55-1.14,1.06-1.12,1.87,1.78.39,3.52.35,3.73,2.14.15,1.27-.74,1.87-.75,3.26.79.29,1.23-.64,1.78-1.12s1.11-.89,1.67-1.3c1-.72,2.83-2.09,4.2-2,1.11.11,1.39.91,2.61,1.31s2.85.24,3.07,1.4c.26,1.34-.83,3.24-1.49,4.75s-1.78,2.84-2.33,3.91a9.71,9.71,0,0,1-.75,1.77,11.49,11.49,0,0,1-2,1.31,16.48,16.48,0,0,1-1.87,1.3c-.87.41-1.81.48-2.51.84s-1.36,1.4-2.33,2.05a7.15,7.15,0,0,1-3.26,1.4,3,3,0,0,1-2-1.21c-.26-.34-.61-1.7-1.31-1.77s-1.57,1.32-1.86,1.86-.41,1.14-.65,1.77a16.35,16.35,0,0,0-.66,1.77,40.13,40.13,0,0,0-.37,4c-.12.94-.7,2-.18,2.7a3,3,0,0,0,2.42.56c1.3-.22,1.71-1.47,2.89-1.58s1.67,1,2.79.74c1.34-.27,1.57-3.22,3-3.91.65-.31,1.81-.1,2.51-.37s1.14-1.46,1.49-2.52a22.13,22.13,0,0,1,2.71-5.31c.52-.84,1.13-1.84,1.58-2.42s1.31-1.11,2-1.78a11.59,11.59,0,0,1,1.86-1.77c1.28-.82,2.72-1.38,3.92-2.23s2.24-1.85,3.35-2.8c1.61-1.38,3.66-2.07,5.22-4,.42-.52.91-1.29,1.68-1.3a1.43,1.43,0,0,1,1.4,1c.25,1.35-1.44,3.13-1.78,3.55a10.05,10.05,0,0,1-1.21,1.39c-.47.42-1,.69-1.49,1.12-.86.82-1.4,1.72-2.14,2.33s-1.76,1.13-2.7,1.77-2.06,1.69-3.27,2.43a15.21,15.21,0,0,0-4.28,4.1,25.39,25.39,0,0,0-2.24,3.35c-.32.61-.42,1.26-.75,2.05a20.47,20.47,0,0,0-1.11,2c-.29.85-.43,1.94-.75,3a17.22,17.22,0,0,1-.74,2.89c-.7,1.2-2.67,1.14-3.27,2s-.54,2.53-.46,3.63c.1,1.42-.05,3,.09,4.1.1.82.58,1.78.84,2.8a50,50,0,0,0,1.86,5.4,25.94,25.94,0,0,0,1.12,3,39.53,39.53,0,0,0,2.42,3.35c1.76,2.44,3.08,4.2,5.69,5.69,1.21.69,3,.9,3.07,2.61a2.43,2.43,0,0,1-1.49,2.05c-2.25.89-5.25-.45-6.61-1.22a13.66,13.66,0,0,1-2.43-1.67c-.74-.67-1.61-1.26-2.23-1.87-1.31-1.27-1.92-3.53-4.48-3.63-2.85-.11-5.65,2.77-7.55.74a18.1,18.1,0,0,1-1.49-3.26,47.9,47.9,0,0,1-2.05-7.27c-.34-1.5-1-2.76-1.12-4-.26-2.16.29-6.32-1.11-6.7a2.91,2.91,0,0,0-2.43,1.11c-.66,1.11-.54,3.59-.46,5.22s1.19,3.84,1.58,5.41c.19.74.19,1.48.37,2.05a25.21,25.21,0,0,0,1.22,2.51c.41.94,1,1.66,1.3,2.33s.32,1.36.56,1.78c.56,1,1.74,1.33,2.61,2.42a9.27,9.27,0,0,1,1.3,2.7c.31,1,1,2.42.38,3.36-.81,1.26-3.53.14-4.29.83s.15,3,.47,4.38a34,34,0,0,1,.83,4.66,18.45,18.45,0,0,1-.65,5.6c-.34,1.69-2.15,3.35-3.26,4.66a9,9,0,0,1-4.57,3.17,10.82,10.82,0,0,1-4.28-.1,4,4,0,0,1-1.49-1.68c-.35-.58-.77-1.55-1.68-1.39-1.18.2-.63,2.26-.37,4.28a24,24,0,0,0,2.42,8.67c.34.63.6,1.31.93,1.86s.91,1,1.21,1.5c.42.71.53,1.29.84,1.77.46.69,1.16,1.13,1.87,2,.35.45.41.94.83,1.49a29.33,29.33,0,0,0,3.73,3.63,41.23,41.23,0,0,0,5.31,4.29,5.25,5.25,0,0,0,1.49.75,1.93,1.93,0,0,0,2.24-1.4c.17-.85-.39-1.82-.65-2.8a25.83,25.83,0,0,1-1-3.17,10.75,10.75,0,0,1,.66-4.38c.42-1.25.93-2.63,1.86-3.17.78-.45,1.68-.19,2.8-.65,2.37-1,3.46-3.84,4.75-5.87.6-.94,1.65-1.91,2.33-3a9.82,9.82,0,0,1,2.52-2.8c.64-.45,1.39-.61,1.95-1a18.67,18.67,0,0,1,1.59-1.31,13.28,13.28,0,0,1,4-1.21c1.49-.28,3.44-1.19,3.83,0,.45,1.43-2.46,2.83-3.45,3.26a15.67,15.67,0,0,0-2.24,1.21c-.73.48-1.66.67-2.24,1.12a15.08,15.08,0,0,0-2.7,3.82c-.78,1.38-1.81,2.8-1.68,4.57.86.23,1.66-.4,2.33-.75s1.51-.66,2.24-1c1.43-.7,2.72-1.6,4.19-2.24,1.73-.75,3.45-.83,4.94-1.49a10.44,10.44,0,0,0,2.05-1.21c.58-.43,1-1.06,1.68-1.49s1.34-.64,2-1.12a20.22,20.22,0,0,0,4.38-5.68,24.09,24.09,0,0,0,1.77-3.27c.48-1.16.81-2.4,1.3-3.63,1.51-3.81,1.3-8.47,2-13.05.23-1.34.82-2.5,1.12-3.82.46-2,.43-4,1.12-6a15.41,15.41,0,0,1,3.91-5.6c.53-.4,2.5-1.6,3.27-.93,1.41,1.23-1.74,2.91-2.24,3.82-.27.5-.39,1.44-.65,2.15s-1,1.67-1.21,2.33c-.33,1.1-.55,3.13.09,3.54,1,.61,2.42-.93,3.07-1.31a31.74,31.74,0,0,0,3.08-1.67,14.23,14.23,0,0,0,2.33-2.43,26.17,26.17,0,0,0,2.14-2.51c.28-.42.46-.92.75-1.4.42-.69,1.12-1.23,1.49-1.87s.38-1.11.65-1.58a12.89,12.89,0,0,0,.84-1.31c.42-1,.7-2,1.12-3.07a18.94,18.94,0,0,0,1-3.17c.24-1.12.33-2.39.55-3.63a26.51,26.51,0,0,0,.75-3.45c.12-3.15-1.4-7-1.77-10.63-.07-.64.05-1.31,0-1.95a20.37,20.37,0,0,1-.09-5.32,14.14,14.14,0,0,1,1.11-2.7c.41-.94.5-2.05.84-3,.2-.54.7-.91,1-1.49a16.92,16.92,0,0,0,.65-1.77c.47-1.18,1-2.47,1.49-3.45,1.18-2.34,3.89-3.62,5.78-5.41.64-.6,1.06-1.44,1.68-1.95.38-.32,1-.55,1.58-.94,1.1-.71,3.58-2.4,5.59-1.49,2.38,1.08-.41,3.93-.37,5.6s2.36,4.27,3.54,4.93a4.87,4.87,0,0,0,5.22-.83,7.76,7.76,0,0,0,1.4-2.33c.8-1.82,1.57-3.06,2.42-5,.5-1.16.94-2.31,1.87-2.79s2-.34,3.54-.56c.75-.11,1.64-.5,2.51-.65s2-.14,2.8-.28c1.73-.31,3.41-1.24,5.31-1.68s3.44-1.21,5.13-1.77,3.6-1.08,5.4-1.49a41.16,41.16,0,0,0,5.32-1.59c1.66-.61,3.36-1.21,5-1.86s3.13-1.57,4.75-2.14,3.47-1.08,5.13-1.78c.83-.35,1.53-.84,2.33-1.11s1.87-.28,2.89-.56a15,15,0,0,0,1.39-.75c.53-.23,1.11-.34,1.59-.56a22,22,0,0,1,2.89-1.4,22.1,22.1,0,0,0,5.68-2.88c2.67-1.68,5.47-3.1,8.3-4.57.92-.48,1.64-1.18,2.51-1.68.62-.35,1.29-.51,1.87-.84.88-.5,1.72-1.33,2.7-2a15.67,15.67,0,0,0,2.52-2.05c1.64-1.58,3.6-3.45,4.1-5.4a30.76,30.76,0,0,0,.37-4.29c.1-1,.47-2,.56-3.07.26-3.42.09-7,.18-10.35.09-2.91.84-7.22.84-11.09,0-1.25.09-2.28-.74-2.61-1.06-.42-2.24.57-3,1.4s-1.71,1.78-2.15,2.33a43.1,43.1,0,0,1-4.38,4.57c-1.39,1.32-2.8,3.09-4.38,4.56a24,24,0,0,1-2.61,1.87c-1.36.95-2,1.94-3.82,2.14a14.76,14.76,0,0,1-5-.65c-1-.28-2.87-1.61-4.29-.93-.77.37-1,2.25-1.3,3.26-.39,1.41-.85,2.56-1,3.45s0,1.47-.18,2.14-.42,1.1-.56,1.68a33.72,33.72,0,0,0-.56,4c-.06.45-.29.94-.38,1.49s-.08,1.16-.18,1.67c-.16.79-.64,1.6-.84,2.43a24.27,24.27,0,0,1-.56,2.61c-.59,1.56-1.38,2.93-2,4.38a13.44,13.44,0,0,1-5.87,6.8c-1.37.85-2.55,1.76-3.91,2.52s-2.85,1.29-4.38,1.95-3.06,1.14-4.66,1.68a18.28,18.28,0,0,1-2.52.65c-.89.18-1.84.12-2.89.28s-1.87.52-3,.66-2,.5-3,.65-1.88,0-2.8.18c-1.24.22-3.61,1.22-4.84.1s0-4.31.55-5.31c1-1.64,1.6-3.32,2.33-4.39,1.1-1.59,2.62-2,4.66-2.6,1.73-.54,3.71-.46,5.41-.94a11.51,11.51,0,0,0,1.86-.84,16.56,16.56,0,0,1,2-.55c.7-.23,1.25-.59,1.87-.75,1.81-.46,3.73-.53,5.12-1.31a9.36,9.36,0,0,0,2.33-1.86c.79-1,.79-2.52,1.49-3.82a10.53,10.53,0,0,1,2.43-2.42c.39-.34.85-.78,1.3-1.12a10.23,10.23,0,0,0,1.49-.93,9.36,9.36,0,0,0,.75-1.31c.25-.42.56-.8.84-1.21.55-.81,1.37-1.58,1.77-2.24,1.12-1.83,1.33-4.27,2.14-6.52.4-1.1.54-2.32,1-3.36a11.36,11.36,0,0,1,1.49-2.79c.53-.54,2.6-.92,3-1.68s0-2.74,0-3.82c0-1.31.18-2.65.28-3.82a8.63,8.63,0,0,1,.75-3.36c.38-.74.91-2,1.86-2.23,2.78-.65,3.17,2.38,4.29,3.73s4.11,3.19,6.43,3.16a11,11,0,0,0,5.4-1.77,7.55,7.55,0,0,0,1.12-1.3c.39-.43.89-.73,1.31-1.12a30.53,30.53,0,0,0,2.14-2.7c1.11-1.33,2.19-2.59,3.35-3.92.4-.44.65-1,1-1.39,1.36-1.27,3.51-1.94,5-3.17a35,35,0,0,0,4.38-3.73,14.12,14.12,0,0,0,2.89-5.22c.64-2,1.11-4.1,1.87-6.24.35-1,.75-2,1-3.08a16.39,16.39,0,0,1,1-3.08A14.06,14.06,0,0,0,366.6,306V293.75a25.56,25.56,0,0,1,0-4,6.9,6.9,0,0,1,.65-1.4c.25-.55.38-1.17.56-1.49a17.56,17.56,0,0,1,1.21-1.58,6.89,6.89,0,0,1,1.21-1.49,16.54,16.54,0,0,1,3.17-1.21,11.81,11.81,0,0,1,3.54-.84,20.39,20.39,0,0,1,2.24.37,17.4,17.4,0,0,1,5,1.58,28.17,28.17,0,0,1,5,2.89c1.13.76,2.53,1.48,2.05,3.45-.32,1.36-2.43,1-2.79,2.15s1.81,3,3.54,2.7c1.45-.26,2.68-2.8,2.7-4.66,0-1.63-1.14-3.27-2.05-4.48A42.93,42.93,0,0,0,389.9,282c-1.11-1.2-2.44-2-3.45-3.08-.55-.58-1-1.18-1.59-1.68-1.1-1-3.34-2.36-2.33-4.47,1.69-.28,2.55,1.17,3.64,2s2.06,1.17,3,1.95a29.58,29.58,0,0,1,2.61,2.24c.75.83,1.42,1.77,2.24,2.61a32.5,32.5,0,0,1,2.42,2.42,23,23,0,0,1,2.14,3.92c.35.71.53,1.51.84,2.23s.81,1.33,1,2a22.31,22.31,0,0,1,.74,3c.2,1.13.1,2.73.56,3.17s3.72.48,4.85.66c.68.1,1.33.06,1.95.18,1.55.29,2.77,1.31,4.29,1.87,3.59,1.29,7.43-.54,8.11-3.45-2.26-.66-4.54.23-6.8-.19-.52-.09-1-.34-1.49-.47s-1.18-.08-1.78-.18c-2.8-.49-6.11-2.38-7.08-4.66a11.55,11.55,0,0,1-.46-6.34c.26-1.44,1.09-2.95,1.58-4.57s1.43-3.59,1.21-5.68c-.12-1.2-.94-2.4-1.4-3.82s-.51-3-.93-4.2a43.06,43.06,0,0,0-3-6.05c-.48-.95-.89-1.94-1.4-2.8-2.13-3.56-5.9-5.36-10-7.08a15.57,15.57,0,0,0-8.57-1.4c-1.25.17-3.89,1.88-4.85,0-.58-1.13.06-2.68.65-3.45.77-1,3-2.65,4.29-2.79a21,21,0,0,1,4.57-.28c.92.11,1.92.47,2.88.65a8.45,8.45,0,0,1,2.52.93,47,47,0,0,1,4.66,2.33,24.19,24.19,0,0,1,2.61,2.42c.43.4.94.81,1.31,1.22s.6,1.15,1.3,1c.09-2.28-1.25-4.22-2.05-6.15a19.76,19.76,0,0,0-3-5.41c-.68-.8-1.3-1.58-1.87-2.33a11.58,11.58,0,0,0-2.14-2c-.79-.64-1.41-1.37-2.24-2s-1.75-.9-2.7-1.49c-.78-.49-1.35-1.24-2.14-1.68-.56-.31-1.25-.44-1.87-.75a13.71,13.71,0,0,0-1.77-1c-.9-.29-1.88-.35-2.79-.56s-2-.08-3-.28a14.5,14.5,0,0,1-3.26-1.21c-1.19-.6-2.19-1.53-3.35-2.05s-2.52-1.12-3.64-1.77c-.57-.34-1-.88-1.49-1.22a21.16,21.16,0,0,0-3.82-1.58c-.64-.23-1.22-.63-1.86-.84a45.11,45.11,0,0,0-8.76-1.49,20.31,20.31,0,0,0-5.32.09c-.86.21-1.78.54-2.79.75a26.76,26.76,0,0,0-5.41,1.68C334.77,221.12,333.87,221.67,333.88,222.55Zm44,76.05c-1.27,1.84.28,3.53,1.31,4.84.56.72,1,1.57,1.49,2.33s1,1,1.49,1.68c.81,1.12,1.38,2.82,2.61,2.79,1.81,0,1.67-3.24,1.12-4.84a7.81,7.81,0,0,0-1.31-2.24c-.39-.45-1.11-.83-1.58-1.4-.78-.93-1.34-2.07-2-2.42A7.68,7.68,0,0,0,377.87,298.6Zm30.2,19.47c1.48.44,2.62-.61,3.73-1.39a4.13,4.13,0,0,0,2.14-2.61c.32-.79,1.26-2.45.56-3.55s-3.81-.24-4.75.47C408.12,312.22,407.81,315.75,408.07,318.07Zm-25.91-.37c.26.94,2.08,1.88,3.17,2.14a27.4,27.4,0,0,0,3.35.38,17.56,17.56,0,0,0,6.53-.56c1.9-.51,3.55-.55,3.63-2.61-.29-.47-.89-.56-1.77-.47-1.68.18-3.68,1.3-5.4,1.49a23.43,23.43,0,0,1-3.82-.18A35.27,35.27,0,0,0,382.16,317.7Zm19.2,7.46c-1.39-.49-4.59.75-6,1.11-.64.17-1.31.27-1.86.47s-2,1.15-2,1.58c-.05.59,1.09,1.42,2,1.4.64,0,1.15-.62,1.95-1a5.81,5.81,0,0,1,3-.65,17.9,17.9,0,0,0,2.14.37C401.35,328.22,402.74,325.64,401.36,325.16ZM355,380.42c-1-.2-2.15,1.24-3.45,2.05s-2.13,1.64-3.08,2.24c-1.11.7-2.31,1.26-3.35,2s-2.15,1.55-3.17,2.14c-.6.34-1.36.53-1.86.84-1.06.64-2,1.54-3.08,2.23s-2.29,1.21-3.45,1.87-2.21,1.32-3.35,2c-.59.32-1.25.51-1.87.83s-1,.77-1.58,1c-.91.41-1.94.67-2.89,1.12s-1.79.87-2.7,1.3c-1.78.84-3.57,1.94-5.41,2.61-.77.28-1.63.39-2.42.66a100.53,100.53,0,0,0-11.09,4.28,18.75,18.75,0,0,1-2.24.84c-.74.25-1.38.72-2,.93-.83.27-1.52.22-2.24.47s-1.43,1-2.23,1.21c-.5.15-1.29.1-1.87.28-.9.29-1.74,1-2.7,1.3-.6.22-1.31.23-2,.47s-1.1.61-1.67.75c-1.09.25-2.2.23-3.27.55-.9.28-1.75.76-2.7,1s-2,.5-3,.84a21.36,21.36,0,0,1-2.8.93c-1.75.37-2.9.28-3.91,1.49a18.24,18.24,0,0,0-1.58,3c-.53,1-.94,2.1-1.4,3.08-.55,1.16-1.45,2.18-1.87,3.17-.21.51-.18,1.14-.37,1.68s-.72,1.26-1,1.95-.66,1.37-.94,2.05a40.45,40.45,0,0,1-2,3.82c-.35.68-.54,1.43-.84,2.15-.55,1.33-1.29,2.58-1.95,4-.3.64-.79,1.23-1,1.86-.16.44-.29,1.35-.46,1.86-.25.73-1.73,3.33-.56,4.2,1,.73,4-1.09,5.4-1.77,2-.95,3.45-1.71,5.13-2.43a48.34,48.34,0,0,0,5.22-2.33,46.53,46.53,0,0,1,5.22-2.23c1.77-.75,3.41-2,5.21-2.89s3.74-1.73,5.32-2.71c1.13-.7,2.17-2,3.45-2.51a35.26,35.26,0,0,0,5-2.42c1.54-1,3.14-1.85,4.75-2.71,2.56-1.36,5-2.32,7.36-3.82.72-.46,1.31-1.12,2-1.58s1.72-.73,2.52-1.21c.62-.38,1.17-1,1.77-1.4a56.61,56.61,0,0,1,5.59-3.82,33.75,33.75,0,0,0,5.31-4.1c1-.9,1.94-1.66,3.08-2.52.46-.34.85-.73,1.31-1.12.91-.8,2-1.32,2.88-2.05.53-.41.92-1,1.4-1.4a44.91,44.91,0,0,1,4.66-3.44c2.18-1.49,4.55-2.68,6.62-4.29.9-.71,1.62-1.68,2.61-2.42,1.87-1.42,3.48-3.21,5.4-4.66a28.57,28.57,0,0,0,2.8-2.24c.68-.68,2.06-2.17,2.14-3.17s-.62-1.7-1.12-2.89S356.09,380.64,355,380.42Z" transform="translate(-63.71 -12.85)" style="fill:#fff;fill-rule:evenodd"/><path d="M355.69,232.8c-2.24-.18-5.49.69-6.71,1.77a5,5,0,0,0-1.3,2.05c-.15.88.44,1.8.28,2.61-.2,1-1.51,1.1-2.43,1.68-.66.42-1.93,1.43-1.58,2.7.4,1.45,2.92,1.2,3.08,2.33s-2.24,2.28-3,3.08c-1,1-1.89,2.2-1.86,3.35.11,3.91,5.74,1.23,7.36.19,1-.62,1.76-1.43,2.7-2.05.56-.37,1.21-.5,1.68-.84,1-.71,1.62-2.06,2.52-3.08.42-.48.91-1,1.3-1.49,1.19-1.59,2.65-2.51,5.78-2a13.55,13.55,0,0,1,3.36,1.12c1.07.54,2.08,1.72,3.35,2.05,2.7.7,4.46-.58,3.54-3.17-.63-1.79-3.89-3.66-5.31-4.75s-3-2-4.57-3a14.27,14.27,0,0,0-3.63-1.77,18.56,18.56,0,0,0-2.14-.65A22.21,22.21,0,0,0,355.69,232.8Z" transform="translate(-63.71 -12.85)" style="fill:#fff;fill-rule:evenodd"/><path d="M331.56,261.69c.53,0,1.05.24,1.58.28,4.3.31,8.83-.34,12.77,0a19.79,19.79,0,0,1,4.28,1.12,28.78,28.78,0,0,1,4,1.4c.64.33,1.28.9,2,1.3s1.51.8,2,1.21c1,.78,1.94,2.25,2.89,3.08.41.35.91.52,1.21.84.58.6.75,1.52,1.58,1.86,1.85.74,4.76,0,7.09.37a65.25,65.25,0,0,1,6.52,2.15,12.33,12.33,0,0,1,3.54,1.3c.92.61,2.14,1.82,2,3-.22,1.37-1.85,1.16-2.89.84-1.37-.41-2.6-.54-3.63-.84-.35-.1-1-.45-1.4-.56-.93-.21-1.94-.36-2.89-.56a12.67,12.67,0,0,0-3.08-.37,23.27,23.27,0,0,0-3.45,1c-.54.13-1.16.08-1.77.28-.81.26-3.65,1.77-3.63,2.7s1,1,2,1.58a2.85,2.85,0,0,1,1.49,2.05c.06,1.56-1.49,1.84-1.68,3.45-.13,1.13.67,1.7.93,2.8.31,1.26.35,3.2-.37,4s-2.24.6-3.36.65a7.24,7.24,0,0,1-2.79-3c-.19-.5-.2-1.23-.37-1.87-.53-1.87-1.56-4.63-3.08-4.94a8.11,8.11,0,0,0-3.08.56c-1,.25-2.08.38-3,.65-.57.18-1.07.51-1.58.66s-1.26.18-1.87.37c-.39.12-.88.45-1.39.65s-1.18.26-1.59.47c-1.86.93-3.24,3.76-4.66,5.4-.66.77-2,2-3.17,2-1.85-.05-2.25-2.13-3.82-2.61-1.75-.53-3.7,1-5.87.28-1.18-.39-1.65-1.67-2.33-2.7a22.65,22.65,0,0,1-2.89-5.5c-.95-3.14.29-7.41-1.3-9.88-1.2-1.85-3.71-3.34-5.13-4.94-.77-.87-2.37-2.34-2.7-3.45-.17-.58-.07-1.32-.19-1.86a13.81,13.81,0,0,0-2.61-5.13c-.58-.84-1-1.8-1.49-2.42-1.09-1.31-2.85-2.25-4.29-3.35-1.05-.82-2.08-1.45-3.26-2.43-2-1.63.53-2.6,2.33-2.23,2.13.42,3.39,1.68,5.41,2.42a19.5,19.5,0,0,0,2.61.65,50.44,50.44,0,0,0,13.14.84c1.27-.09,2.53-.46,3.82-.56.59,0,1.17.06,1.77,0s1.18-.38,2-.47,1.42.07,2.14,0c1.5-.13,3.36-.91,3.45,1,.1,2.1-3.37,3.76-4.85,4.38a5.27,5.27,0,0,0-2.05,1C327.71,261.89,329.75,261.54,331.56,261.69ZM340,270c-.77,0-4.4.13-4.38,1.22,0,.93,2.44.78,3,1.58.92,1.36.27,3.42-.19,4.57a13.8,13.8,0,0,1-1.68,3.07c-.37.49-2,1.51-1.77,2.24.35,1.34,2.72.81,4.38.74,1.33,0,3.86.39,5.5.38,1.17,0,2.3-.28,2.43-.93.16-.83-.78-1.72-1.31-2.33s-1.37-1.08-1.68-1.87c-1-2.69.6-5-.84-7.08A5.07,5.07,0,0,0,340,270Z" transform="translate(-63.71 -12.85)" style="fill:#fff;fill-rule:evenodd"/><path d="M281,275.86c-1.58-.53-2.79,1.79-3.73,2.7a20.07,20.07,0,0,1-4.56,3.54,12.67,12.67,0,0,1-3.54.84c-2.3.2-4.09.23-5.87,1-1.36.6-3.34,2.31-3.17,4a4.49,4.49,0,0,0,2.33,2.8,13,13,0,0,0,4.75-.1,18.9,18.9,0,0,0,4.29-2.14c.73-.51,1.38-1.46,2.23-2.14,2.77-2.22,5.91-4.56,7.55-7.74C281.8,277.72,282.43,276.31,281,275.86Z" transform="translate(-63.71 -12.85)" style="fill:#fff;fill-rule:evenodd"/><path d="M224.1,284.34c-1.35,1.16-.81,3.06-.09,4.19a8.36,8.36,0,0,0,3.35,2.61,21,21,0,0,0,4.48.47c1.79.09,3.14.39,4.38.46,3.34.21,6.8-.42,7.08-2.79.25-2.15-1.62-3-4-2.71-.92.13-1.83.6-2.79.75a17,17,0,0,1-5.41.28,8.54,8.54,0,0,1-2.42-.93c-1.21-.66-1.63-1.53-3.08-2.24A1.93,1.93,0,0,0,224.1,284.34Z" transform="translate(-63.71 -12.85)" style="fill:#fff;fill-rule:evenodd"/><path d="M348.8,290.58c-1.21-.15-2.79,1.18-3.73,2a37.21,37.21,0,0,0-5.41,5.59c-.88,1.11-2,2.09-2.51,3-.43.72-.78,1.64-1.31,2.61-.72,1.33-1.36,3.76.65,3.92,1.56.12,2.32-1.63,3.73-1.5.79.08,1.63,1.2,2.15,1.87a18.18,18.18,0,0,1,1.67,2.23,5.9,5.9,0,0,1,.75,3c-.28,2-3.56,2.55-5.13,3.54s-2.73,3.15-4,4.19a5.08,5.08,0,0,1-1.78,1c-.87.18-2-.27-2.6,0a2,2,0,0,0-.84,2.05c.3,2.92,4.21,2.78,6.05,1.4s2.76-4,4.94-4.57c1.94-.5,3.9.37,5.5-.09,1.26-.37,2.33-1.82,3-2.71,1.33-1.78,2.69-3.13,3.27-5.87a14.75,14.75,0,0,0,.46-3,17,17,0,0,0-.46-2.33,17.33,17.33,0,0,0-.47-2.24c-.43-1.12-1.51-2-2.33-3.17-.43-.59-2.1-2.38-2.14-3.26-.06-1.07.89-1.76,1.49-2.51A4.17,4.17,0,0,0,351,293,2.54,2.54,0,0,0,348.8,290.58Z" transform="translate(-63.71 -12.85)" style="fill:#fff;fill-rule:evenodd"/><path d="M362.31,308.19c-1.92-.5-3.06,2.94-3.82,4.48-.4.81-.89,1.61-1.31,2.61-.32.78-.87,1.73-1.21,2.61-.66,1.73-.72,2.75-1.3,4.19-.67,1.63-2.87,3-2.43,4.75a2,2,0,0,0,2.24.94c1.95-.34,3.33-3.63,4.38-5.5.42-.75,1.24-1.46,1.59-2.24.17-.4.1-.85.28-1.4.26-.85.92-1.59,1.3-2.51a16.21,16.21,0,0,0,.65-2.43C363,312.33,364.26,308.71,362.31,308.19Z" transform="translate(-63.71 -12.85)" style="fill:#fff;fill-rule:evenodd"/><path d="M270.7,315.37c-1.73-.1-2.26-.57-3.45-.19s-1.47,2.18-2.7,2.43a6.94,6.94,0,0,1-2.05-.28,11.65,11.65,0,0,0-3.54.09c-.86.21-1.76,1.2-2.89,1.31a8.17,8.17,0,0,1-4.2-1c-1.66-.8-3.3-2.78-4.94-3.54-2-.94-5.4-.31-4.38,2.8.4,1.2,2.64,1.88,4.1,2.7,3.18,1.76,5.54,3.2,8.67,4.94,1.54.85,3,1.81,4.38,2.42.55.25,1.19.32,1.77.56,2.24.92,4.41,2.4,7.64,1.77a16.36,16.36,0,0,0,2-.75c.76-.25,1.54-.31,2.14-.55a14.1,14.1,0,0,0,2.52-1.5c.75-.55,1.67-1,2.33-1.58.41-.37,1-1.51,1.49-2s1.3-.65,1.87-1.12c1.12-.92,2-2.11,3.16-3,1.34-1,3-1.5,4.2-2.51.65-.57,1.22-1.54,2.05-2.43a4.53,4.53,0,0,0,1.49-3,2.77,2.77,0,0,0-3.64-2.52c-1.06.32-1.43,1.54-2.42,1.68s-1.77-.62-3.17-.37a3,3,0,0,0-1.21.56c-.78.58-1.13,2.39-2,2.61-1.1.29-2.49-1-4-1.21a4.16,4.16,0,0,0-3.45.93C271.69,313.38,271.58,314.57,270.7,315.37Z" transform="translate(-63.71 -12.85)" style="fill:#fff;fill-rule:evenodd"/><path d="M206.77,315a12,12,0,0,0-5.78,1c-1.51.8-5.38,4.33-1.77,5.5,2.61.85,5.7.87,7.92-.56.85-.55,3.22-2.63,2.89-4.28C209.79,315.48,207.93,315.15,206.77,315Z" transform="translate(-63.71 -12.85)" style="fill:#fff;fill-rule:evenodd"/><path d="M217,324.5c-1.3-.34-2.29.71-2.52,2.15-.41,2.59.17,6.7,1.68,6.71.64,0,2.09-1.42,2.23-2.71C218.68,328.36,218.9,325,217,324.5Z" transform="translate(-63.71 -12.85)" style="fill:#fff;fill-rule:evenodd"/><path d="M222.89,327.86c-1.19-.26-1.06,1-1.12,2.52a23.77,23.77,0,0,0-.09,3.16,18.43,18.43,0,0,0,.93,3.27c.36,1.11.62,2.24,1,3.16.24.56.71,1,.94,1.5s.28,1.14.55,1.67c.62,1.2,1.62,1.62,2.52,2.8.29.38.38.92.65,1.3s.94.77,1.31,1.22.64,1.08,1,1.49c.69.73,1.46,1.25,2.15,2.05a25.76,25.76,0,0,0,2.14,2.05c.75.68,1.62,1.15,2.42,1.77s1.34,1.49,2,2.05,1.47.88,2.24,1.4c1.51,1,2.72,1.7,4.57,2.7.82.45,1.84,1.12,2.61.93,1.09-.27,1.19-2.51,1-4.75a21.57,21.57,0,0,0-.65-4.38,13.17,13.17,0,0,0-3.45-5.69c-1.9-2.06-4.28-3.33-6.43-5.22-.58-.51-.92-1.28-1.49-1.77s-1.33-.86-2-1.39c-1.2-1-2.46-1.95-3.63-3.08-.58-.56-1.28-.95-1.87-1.49-2.56-2.41-4.39-5.26-7.27-7.18A.34.34,0,0,0,222.89,327.86Z" transform="translate(-63.71 -12.85)" style="fill:#fff;fill-rule:evenodd"/><path d="M199.4,329.54a11.77,11.77,0,0,0-4.75.56,15.73,15.73,0,0,0-2.8,2.14c-1.17.94-2.63,2-2.23,4.38a4.69,4.69,0,0,0,1.95,3,7.48,7.48,0,0,0,3.83.1c1.81-.65,1.37-4.64,4.1-4.85s4.95,1.79,7.08,1.77a3.75,3.75,0,0,0,2.42-.93c.65-.72,1-3.17-.28-3.73s-2.84.78-4.28.37c-1.19-.33-1.74-1.61-2.71-2.14A6.74,6.74,0,0,0,199.4,329.54Z" transform="translate(-63.71 -12.85)" style="fill:#fff;fill-rule:evenodd"/><path d="M271.07,339c-1.2-.29-1.74.57-2.52,1.4-1.31,1.41-2.1,2.15-2.33,4.75a24.2,24.2,0,0,0,.28,3.82c.14,1.73-.16,3.74,0,5.5.09.95.36,2,.47,3,.19,1.77.94,3.44.93,5.5,0,.88-.26,2-.37,3.08s0,2.14-.19,3.07-.52,1.57-.56,2.24c-.06,1,.27,1.69.28,2.61,0,2.37-.91,4.37-1.11,6.61-.06.61.06,1.26,0,1.87-.26,2.46-1.54,4.57-2.24,7-.79,2.71-1.3,5.68-2.42,7.92-.6,1.18-1.64,2.24-2.43,3.45s-1.91,2-2.14,3.63c-.12.83-.22,2.7,1.49,2.8,2.19.13,2.89-3.5,3.91-4.75a18.49,18.49,0,0,1,2.52-2.05,23.06,23.06,0,0,0,2.14-2.24,13.71,13.71,0,0,0,1.87-2.42c.55-1.14.65-2.63,1.21-3.92s1.23-2.42,1.58-3.54.55-2.38.84-3.54.81-2.2,1-3.26c.12-.6,0-1.24.09-1.87.18-1.26.94-2.76,1.12-4.28.15-1.29.18-2.67.28-4s.37-2.62.37-3.82a11.56,11.56,0,0,0-.46-2.43,15.82,15.82,0,0,0-1.4-4.28c-.36-.68-.53-1.38-.84-2.05-.24-.52-.7-1-.93-1.49s-.33-1.13-.56-1.68a5.24,5.24,0,0,1-.75-3.54,9,9,0,0,1,.93-2c.32-.68.45-1.52.75-2.14.54-1.12,2-2.16,2.24-3.27C274.62,342.26,272.49,339.29,271.07,339Z" transform="translate(-63.71 -12.85)" style="fill:#fff;fill-rule:evenodd"/><path d="M272.93,403.35c-1.48-.13-3.86.78-5.31,1.4-.5.21-1,.28-1.4.46s-.63.6-1.11.93c-.89.61-2.48,1.52-2.43,2.89.09,2.23,3.85,1.28,5.69,1a13.32,13.32,0,0,0,2.51-.37,8.69,8.69,0,0,0,2.43-1.87c.88-.91,2.71-2.29,1.58-3.82C274.52,403.5,273.75,403.42,272.93,403.35Z" transform="translate(-63.71 -12.85)" style="fill:#fff;fill-rule:evenodd"/><path d="M232.67,411.55c-1.23-.95-2.48,1.26-3,2.42a34,34,0,0,1-1.49,3.73c-.72,1.15-2.23,2.12-2.8,3.54-1,2.42-1.53,9.3,1.87,9,1.15-.09,2.63-2.37,3.17-3.54a27.79,27.79,0,0,0,.84-3c.71-2.35.74-5,1.11-7.92C232.59,414.28,233.23,412.46,232.67,411.55Z" transform="translate(-63.71 -12.85)" style="fill:#fff;fill-rule:evenodd"/><path d="M222.14,435.41c-1.11-.4-1.45.89-1.49,2.23a28.29,28.29,0,0,0,0,3.45c.13,1.28,1,3.56,1.12,5,.13,1.73,0,3.61,1.21,3.72s2.06-2.44,2.24-3.72a14.44,14.44,0,0,0-1.31-7.65C223.44,437.38,222.82,435.65,222.14,435.41Z" transform="translate(-63.71 -12.85)" style="fill:#fff;fill-rule:evenodd"/></g></svg>